<?xml version="1.0" standalone="no"?>
<!DOCTYPE svg PUBLIC "-//W3C//DTD SVG 20010904//EN"
 "http://www.w3.org/TR/2001/REC-SVG-20010904/DTD/svg10.dtd">
<svg version="1.0" xmlns="http://www.w3.org/2000/svg"
 width="1280.000000pt" height="720.000000pt" viewBox="0 0 1280.000000 720.000000"
 preserveAspectRatio="xMidYMid meet">
<metadata>
Created by potrace 1.16, written by Peter Selinger 2001-2019
</metadata>
<g transform="translate(0.000000,720.000000) scale(0.100000,-0.100000)"
fill="#000000" stroke="none">
<path d="M3959 7141 c-1128 -382 -2024 -992 -2795 -1906 -464 -551 -869 -1281
-1096 -1980 -16 -49 -37 -110 -46 -135 -16 -41 -17 -170 -20 -1582 l-2 -1538
6400 0 6400 0 -2 1538 c-3 1412 -4 1541 -20 1582 -9 25 -30 86 -46 135 -153
470 -397 980 -670 1400 -262 402 -532 728 -895 1081 -664 645 -1462 1124
-2364 1418 l-142 46 -2263 0 -2263 0 -176 -59z m4221 -3496 l0 -715 -1780 0
-1780 0 0 715 0 715 1780 0 1780 0 0 -715z"/>
</g>
</svg>
