<svg width="34" height="31" viewBox="0 0 34 31" fill="none" xmlns="http://www.w3.org/2000/svg">
<path d="M28.9184 15.6636C28.9184 17.0264 28.7097 18.3415 28.3212 19.577C28.2792 19.7148 28.2338 19.8511 28.1852 19.9866C28.0318 20.4283 27.8537 20.8584 27.654 21.2771C27.4866 21.6301 27.3035 21.9741 27.1048 22.3082C26.709 22.9789 26.2553 23.611 25.7489 24.198C25.2195 24.8128 24.6338 25.3785 24.0004 25.8875C21.7398 27.6992 18.8656 28.7845 15.7365 28.7845C8.45655 28.7845 2.55471 22.91 2.55471 15.6636C2.55471 8.41729 8.45642 2.54271 15.7365 2.54271C23.0165 2.54271 28.9184 8.41729 28.9184 15.6636Z" fill="url(#paint0_linear)"/>
<path d="M15.7365 6.77433C15.2192 6.77433 14.7999 14.2166 14.7999 14.7314C14.7999 15.0595 14.9705 15.3475 15.2279 15.5136L24.8766 25.1176C26.5043 23.5581 27.7298 21.586 28.3841 19.3703C26.2296 17.2414 15.7365 6.77433 15.7365 6.77433Z" fill="url(#paint1_linear)"/>
<path d="M15.7367 16.4053C16.1481 16.4053 16.4816 16.0734 16.4816 15.6638C16.4816 15.2543 16.1481 14.9223 15.7367 14.9223C15.3253 14.9223 14.9917 15.2543 14.9917 15.6638C14.9917 16.0734 15.3253 16.4053 15.7367 16.4053Z" fill="url(#paint2_linear)"/>
<path d="M15.7365 5.24267C15.646 5.24267 15.5642 5.27916 15.5048 5.33819C15.4456 5.39715 15.4089 5.47865 15.4089 5.56874V7.95935C15.4089 8.02684 15.4295 8.08957 15.4648 8.14159C15.4883 8.17629 15.5184 8.20623 15.5533 8.22963C15.5707 8.2414 15.5893 8.25145 15.6089 8.25971C15.6481 8.27617 15.6912 8.28536 15.7363 8.28536C15.8268 8.28536 15.9087 8.24887 15.968 8.18984C16.0272 8.13082 16.0639 8.04938 16.0639 7.95929V5.56867C16.064 5.38862 15.9173 5.24267 15.7365 5.24267Z" fill="url(#paint3_linear)"/>
<path d="M15.7365 23.042C15.5556 23.042 15.409 23.1881 15.409 23.368V25.7587C15.409 25.7897 15.4147 25.8192 15.4228 25.8476C15.4619 25.9841 15.5868 26.0847 15.7364 26.0847C15.7816 26.0847 15.8247 26.0755 15.8638 26.059C15.9814 26.0095 16.0639 25.8936 16.0639 25.7586V23.368C16.064 23.188 15.9173 23.042 15.7365 23.042Z" fill="url(#paint4_linear)"/>
<path d="M25.8783 15.3377H23.4766C23.2957 15.3377 23.1491 15.4836 23.1491 15.6637C23.1491 15.8437 23.2957 15.9897 23.4766 15.9897H25.8783C26.0592 15.9897 26.2058 15.8437 26.2058 15.6637C26.2059 15.4836 26.0592 15.3377 25.8783 15.3377Z" fill="url(#paint5_linear)"/>
<path d="M8.32389 15.6636C8.32389 15.5961 8.3033 15.5333 8.26797 15.4813C8.24447 15.4466 8.21438 15.4167 8.17952 15.3933C8.12726 15.3581 8.06424 15.3376 7.99637 15.3376H5.5946C5.50415 15.3376 5.42227 15.3741 5.36297 15.4331C5.30374 15.4922 5.26701 15.5736 5.26701 15.6637C5.26701 15.8438 5.41364 15.9897 5.59453 15.9897H7.99624C8.08669 15.9897 8.16856 15.9532 8.22786 15.8942C8.28717 15.8352 8.32389 15.7537 8.32389 15.6636Z" fill="url(#paint6_linear)"/>
<path d="M21.4412 10.4463L23.1394 8.75591C23.2673 8.6286 23.2673 8.42218 23.1394 8.29487C23.0115 8.1675 22.8042 8.16756 22.6763 8.29487L20.978 9.98529C20.85 10.1127 20.85 10.319 20.978 10.4463C21.1059 10.5736 21.3133 10.5736 21.4412 10.4463Z" fill="url(#paint7_linear)"/>
<path d="M10.4949 20.881C10.367 20.7537 10.1596 20.7537 10.0317 20.881L8.33345 22.5714C8.22315 22.6812 8.20854 22.8496 8.2885 22.9757C8.29866 22.9917 8.31081 23.0066 8.32402 23.021C8.32741 23.0247 8.3298 23.0289 8.33345 23.0325C8.39587 23.0946 8.47722 23.126 8.55904 23.1274C8.56103 23.1275 8.56302 23.128 8.56501 23.128C8.64882 23.128 8.73262 23.0962 8.79664 23.0325L10.4949 21.3421C10.5429 21.2944 10.5729 21.2355 10.5848 21.1739C10.5888 21.1533 10.5908 21.1325 10.5908 21.1116C10.5909 21.0281 10.5589 20.9446 10.4949 20.881Z" fill="url(#paint8_linear)"/>
<path d="M23.1394 22.5713L21.4412 20.8809C21.4012 20.8411 21.3531 20.8153 21.3025 20.8003C21.2538 20.786 21.2028 20.7822 21.153 20.7908C21.0889 20.8019 21.0275 20.8315 20.978 20.8808C20.8501 21.0082 20.8501 21.2145 20.978 21.3418L22.6763 23.0323C22.6955 23.0514 22.7168 23.0666 22.7391 23.08C22.865 23.1557 23.0308 23.1405 23.1396 23.0323C23.1917 22.9804 23.2214 22.9151 23.231 22.8476C23.2449 22.7498 23.2152 22.6468 23.1394 22.5713Z" fill="url(#paint9_linear)"/>
<path d="M8.79663 8.29494C8.73269 8.23129 8.64881 8.19943 8.56501 8.19943C8.54409 8.19943 8.52311 8.20141 8.50246 8.20538C8.4405 8.21734 8.3814 8.24709 8.33345 8.29488C8.2695 8.35853 8.2375 8.44201 8.2375 8.52543C8.2375 8.54625 8.23949 8.56714 8.24347 8.5877C8.25549 8.64937 8.28537 8.7082 8.33339 8.75592L10.0317 10.4463C10.0346 10.4493 10.038 10.4512 10.0411 10.4539C10.071 10.4816 10.1042 10.5035 10.14 10.5179C10.1794 10.5339 10.2214 10.5418 10.2633 10.5418C10.3471 10.5418 10.431 10.5099 10.4949 10.4463C10.5428 10.3986 10.5729 10.3397 10.5848 10.2781C10.5888 10.2575 10.5908 10.2367 10.5908 10.2158C10.5908 10.1324 10.5588 10.0489 10.4948 9.98524L8.79663 8.29494Z" fill="url(#paint10_linear)"/>
<path d="M27.6541 21.2772C27.4867 21.6302 27.3035 21.9741 27.1048 22.3083C26.709 22.979 26.2553 23.6111 25.7489 24.198C25.2195 24.8129 24.6338 25.3786 24.0005 25.8875L14.727 16.6685C14.1686 16.1136 14.1686 15.2138 14.727 14.6589C14.7517 14.6343 14.7764 14.6112 14.8028 14.5891C15.3372 14.1261 16.1356 14.1261 16.67 14.5891C16.6964 14.6112 16.7211 14.6342 16.7459 14.6589C16.7706 14.6834 16.7953 14.7098 16.8168 14.7361H16.8176C16.834 14.7369 16.8506 14.7377 16.8687 14.7385C16.9 14.741 16.9347 14.7426 16.9718 14.7451C17.1664 14.7573 17.4328 14.7779 17.7421 14.8058C17.8344 14.814 17.9309 14.823 18.0307 14.8329C18.1025 14.8402 18.1759 14.8468 18.2509 14.855C18.3145 14.8616 18.3788 14.8682 18.4447 14.8747C18.4925 14.8796 18.5412 14.8854 18.5899 14.8903C18.6674 14.8985 18.7449 14.9076 18.8233 14.9166C19.1961 14.9593 19.5821 15.0077 19.9507 15.062C20.001 15.0693 20.0513 15.0768 20.1008 15.0849C20.1082 15.0857 20.1165 15.0866 20.1239 15.0882C20.1816 15.0973 20.2386 15.1063 20.2946 15.1145C20.3506 15.1244 20.406 15.1335 20.4604 15.1424C20.4967 15.149 20.533 15.1548 20.5693 15.1613C20.6245 15.1712 20.6798 15.181 20.7342 15.1918C20.7614 15.1966 20.7887 15.2016 20.815 15.2066C20.8711 15.2181 20.9247 15.2287 20.9775 15.2394C20.994 15.2427 21.0097 15.246 21.0254 15.2493C21.0468 15.2541 21.0683 15.2592 21.0889 15.2632C21.0988 15.2649 21.1087 15.2673 21.1186 15.2697C21.1492 15.2771 21.1797 15.2837 21.2085 15.2902C21.2291 15.2951 21.2489 15.3002 21.2678 15.3042C21.3445 15.3239 21.4163 15.3427 21.4839 15.3616C21.4996 15.3665 21.5153 15.3715 21.5301 15.3756C21.5426 15.3789 21.5541 15.3829 21.5656 15.3863C21.5829 15.392 21.5994 15.3978 21.6159 15.4027C21.6217 15.4044 21.6275 15.406 21.6333 15.4085C21.6663 15.42 21.6968 15.4306 21.7256 15.4421C21.7281 15.4429 21.7306 15.4446 21.7339 15.4454C21.7496 15.4519 21.7652 15.4585 21.7801 15.4643C21.8156 15.4799 21.8469 15.4947 21.875 15.5103C21.8874 15.5176 21.898 15.5242 21.9088 15.5308C21.9434 15.5529 21.9698 15.5751 21.9872 15.5973C21.9929 15.603 21.9971 15.6096 22.0004 15.6153C22.0012 15.617 22.002 15.6178 22.002 15.6186C22.0062 15.626 22.0094 15.6334 22.0111 15.6416C22.0136 15.6489 22.0144 15.6564 22.0144 15.6637L27.6541 21.2772Z" fill="url(#paint11_linear)"/>
<path d="M16.6731 16.5959C16.1558 16.5959 15.7365 16.1785 15.7365 15.6636C15.7365 15.1488 16.1558 14.7314 16.6731 14.7314C17.1903 14.7314 22.0141 15.1488 22.0141 15.6636C22.0141 16.1786 17.1903 16.5959 16.6731 16.5959Z" fill="url(#paint12_linear)"/>
<path d="M16.6731 14.7314C16.6731 15.2462 16.2537 15.6636 15.7365 15.6636C15.2192 15.6636 14.7999 15.2462 14.7999 14.7314C14.7999 14.2165 15.2192 6.77426 15.7365 6.77426C16.2537 6.77433 16.6731 14.2165 16.6731 14.7314Z" fill="url(#paint13_linear)"/>
<path d="M15.7367 17.0852C16.5253 17.0852 17.1647 16.4489 17.1647 15.6638C17.1647 14.8788 16.5253 14.2424 15.7367 14.2424C14.948 14.2424 14.3087 14.8788 14.3087 15.6638C14.3087 16.4489 14.948 17.0852 15.7367 17.0852Z" fill="url(#paint14_linear)"/>
<path d="M15.0814 26.912C14.6748 27.4445 14.4715 27.9896 14.4715 28.5472V28.7242C14.8878 28.7637 15.3096 28.7846 15.7364 28.7846C18.8655 28.7846 21.7397 27.6993 24.0003 25.8875C24.6337 25.3786 25.2193 24.8129 25.7488 24.198C25.9627 23.9501 26.1666 23.6937 26.3612 23.4302L21.3407 18.4365C20.5618 17.7452 19.6179 17.3996 18.5089 17.3996C17.4621 17.3996 16.5618 17.7066 15.808 18.3205C15.054 18.9344 14.6772 19.7252 14.6772 20.6926C14.6772 21.1717 14.8062 21.4928 15.0624 21.6583L17.9069 24.5038L16.5837 25.4625C15.9888 25.8963 15.4879 26.3794 15.0814 26.912Z" fill="url(#paint15_linear)"/>
<path d="M14.4716 30.3496V28.5472C14.4716 27.9896 14.6748 27.4446 15.0815 26.912C15.4879 26.3794 15.9888 25.8963 16.5838 25.4625L18.3781 24.1625C18.9763 23.7293 19.4838 23.2526 19.9015 22.7325C20.3189 22.2128 20.5277 21.6926 20.5277 21.1725C20.5277 20.6528 20.3563 20.1978 20.0137 19.8077C19.6708 19.4179 19.1694 19.2228 18.509 19.2228C17.9483 19.2228 17.4933 19.3769 17.1446 19.6847C16.7955 19.9926 16.6212 20.4481 16.6212 21.0513C16.6212 21.2485 16.5245 21.4211 16.3315 21.5688C16.1382 21.7165 15.8858 21.7904 15.5745 21.7904C14.9763 21.7904 14.6773 21.4246 14.6773 20.6926C14.6773 19.7252 15.0541 18.9345 15.8081 18.3205C16.5619 17.7066 17.4622 17.3996 18.509 17.3996C19.6179 17.3996 20.562 17.7451 21.3408 18.4364C22.1194 19.1278 22.509 20.021 22.509 21.117C22.509 21.86 22.3003 22.5563 21.8829 23.2062C21.4652 23.8562 20.9606 24.4072 20.3688 24.8589C19.7768 25.311 19.1849 25.738 18.5932 26.1403C18.0012 26.5427 17.4966 26.9482 17.0792 27.3567C16.6615 27.7654 16.4531 28.1616 16.4531 28.5453V29.2509H21.9483C22.1227 29.2509 22.2754 29.3346 22.4063 29.5021C22.5371 29.6696 22.6026 29.8714 22.6026 30.1068C22.6026 30.3426 22.5375 30.5504 22.4075 30.73C22.2776 30.91 22.126 30.9999 21.9528 30.9999H15.3441C15.1461 30.9999 14.951 30.9379 14.7594 30.8141C14.5674 30.6903 14.4716 30.5356 14.4716 30.3496Z" fill="url(#paint16_linear)"/>
<path d="M22.6772 27.2117C22.6772 27.0756 22.7146 26.9393 22.7895 26.803L27.3128 17.9385C27.4997 17.5793 27.7862 17.3997 28.1726 17.3997C28.3843 17.3997 28.6025 17.474 28.8268 17.6229C29.051 17.7718 29.1633 17.9516 29.1633 18.1625C29.1633 18.2368 29.1319 18.3362 29.0697 18.4602L25.2193 26.1067H27.967V23.5245C27.967 23.0878 28.2969 22.8695 28.9576 22.8695C29.2315 22.8695 29.4651 22.9259 29.6585 23.0381C29.8516 23.1504 29.9483 23.3125 29.9483 23.5246V26.1068H30.8641C31.0758 26.1068 31.2408 26.199 31.3594 26.3833C31.4777 26.5676 31.537 26.7825 31.537 27.0278C31.537 27.2487 31.4683 27.4545 31.3313 27.6446C31.1941 27.835 31.0384 27.9301 30.8641 27.9301H29.9482V30.3446C29.9482 30.5447 29.8483 30.7037 29.6491 30.8223C29.4495 30.9409 29.2192 31 28.9575 31C28.6833 31 28.4496 30.941 28.2566 30.8223C28.0632 30.7037 27.9668 30.5447 27.9668 30.3446V27.9301H23.3688C23.1692 27.9301 23.0043 27.8658 22.8735 27.7368C22.7427 27.6077 22.6772 27.4326 22.6772 27.2117Z" fill="url(#paint17_linear)"/>
<path d="M32.8916 13.4174H31.3805H31.3104C30.2124 5.8408 23.6474 0 15.7365 0C7.05931 0 0 7.02662 0 15.6636C0 19.2275 1.23496 22.7156 3.47736 25.4854C5.68596 28.2134 8.78115 30.1464 12.1927 30.9283C12.2861 30.9498 12.3794 30.9599 12.4713 30.9599C13.0347 30.9599 13.544 30.5743 13.6758 30.0046C13.8291 29.3418 13.4136 28.681 12.7477 28.5284C9.8742 27.8698 7.26616 26.2404 5.40387 23.9402C3.48725 21.5728 2.47423 18.7109 2.47423 15.6638C2.47423 8.3847 8.42362 2.46286 15.7365 2.46286C22.2801 2.46286 27.7313 7.2047 28.8057 13.4174H27.5008C26.5153 13.4174 26.0217 14.6035 26.7186 15.297L29.414 17.98C29.846 18.41 30.5464 18.41 30.9784 17.98L33.6738 15.297C34.3706 14.6034 33.877 13.4174 32.8916 13.4174Z" fill="url(#paint18_linear)"/>
<defs>
<linearGradient id="paint0_linear" x1="16.3197" y1="16.2448" x2="33.4622" y2="33.4669" gradientUnits="userSpaceOnUse">
<stop stop-color="white"/>
<stop offset="1" stop-color="#C3C3C3"/>
</linearGradient>
<linearGradient id="paint1_linear" x1="21.0735" y1="16.0321" x2="6.93038" y2="14.437" gradientUnits="userSpaceOnUse">
<stop stop-color="#C3C3C3" stop-opacity="0"/>
<stop offset="0.267" stop-color="#A4A4A4" stop-opacity="0.267"/>
<stop offset="0.542" stop-color="#8B8B8B" stop-opacity="0.542"/>
<stop offset="0.794" stop-color="#7C7C7C" stop-opacity="0.794"/>
<stop offset="1" stop-color="#777777"/>
</linearGradient>
<linearGradient id="paint2_linear" x1="15.7363" y1="15.3012" x2="15.7363" y2="17.5143" gradientUnits="userSpaceOnUse">
<stop stop-color="#F18D00"/>
<stop offset="1" stop-color="#ED7103"/>
</linearGradient>
<linearGradient id="paint3_linear" x1="18.0932" y1="14.1541" x2="18.743" y2="16.2102" gradientUnits="userSpaceOnUse">
<stop stop-color="#A7F3CE"/>
<stop offset="1" stop-color="#61DB99"/>
</linearGradient>
<linearGradient id="paint4_linear" x1="12.9363" y1="15.7839" x2="13.5862" y2="17.84" gradientUnits="userSpaceOnUse">
<stop stop-color="#A7F3CE"/>
<stop offset="1" stop-color="#61DB99"/>
</linearGradient>
<linearGradient id="paint5_linear" x1="23.3192" y1="14.7515" x2="26.3669" y2="16.819" gradientUnits="userSpaceOnUse">
<stop stop-color="#A7F3CE"/>
<stop offset="1" stop-color="#61DB99"/>
</linearGradient>
<linearGradient id="paint6_linear" x1="5.43761" y1="14.7515" x2="8.48535" y2="16.819" gradientUnits="userSpaceOnUse">
<stop stop-color="#A7F3CE"/>
<stop offset="1" stop-color="#61DB99"/>
</linearGradient>
<linearGradient id="paint7_linear" x1="24.1978" y1="11.2389" x2="26.5416" y2="13.3041" gradientUnits="userSpaceOnUse">
<stop stop-color="#A7F3CE"/>
<stop offset="1" stop-color="#61DB99"/>
</linearGradient>
<linearGradient id="paint8_linear" x1="5.2858" y1="18.352" x2="7.62893" y2="20.4171" gradientUnits="userSpaceOnUse">
<stop stop-color="#A7F3CE"/>
<stop offset="1" stop-color="#61DB99"/>
</linearGradient>
<linearGradient id="paint9_linear" x1="17.9298" y1="18.3507" x2="20.2723" y2="20.4158" gradientUnits="userSpaceOnUse">
<stop stop-color="#A7F3CE"/>
<stop offset="1" stop-color="#61DB99"/>
</linearGradient>
<linearGradient id="paint10_linear" x1="11.5537" y1="11.2386" x2="13.8975" y2="13.3038" gradientUnits="userSpaceOnUse">
<stop stop-color="#A7F3CE"/>
<stop offset="1" stop-color="#61DB99"/>
</linearGradient>
<linearGradient id="paint11_linear" x1="20.9397" y1="18.7006" x2="15.2103" y2="12.3782" gradientUnits="userSpaceOnUse">
<stop stop-color="#C3C3C3" stop-opacity="0"/>
<stop offset="0.267" stop-color="#A4A4A4" stop-opacity="0.267"/>
<stop offset="0.542" stop-color="#8B8B8B" stop-opacity="0.542"/>
<stop offset="0.794" stop-color="#7C7C7C" stop-opacity="0.794"/>
<stop offset="1" stop-color="#777777"/>
</linearGradient>
<linearGradient id="paint12_linear" x1="20.2518" y1="15.3252" x2="0.0347593" y2="17.335" gradientUnits="userSpaceOnUse">
<stop stop-color="#FFB92D"/>
<stop offset="1" stop-color="#F59500"/>
</linearGradient>
<linearGradient id="paint13_linear" x1="17.6212" y1="19.4558" x2="19.6046" y2="26.9733" gradientUnits="userSpaceOnUse">
<stop stop-color="#FFB92D"/>
<stop offset="1" stop-color="#F59500"/>
</linearGradient>
<linearGradient id="paint14_linear" x1="15.7363" y1="15.0026" x2="15.7363" y2="17.0571" gradientUnits="userSpaceOnUse">
<stop stop-color="#A7F3CE"/>
<stop offset="1" stop-color="#61DB99"/>
</linearGradient>
<linearGradient id="paint15_linear" x1="20.5342" y1="26.1951" x2="12.7155" y2="18.34" gradientUnits="userSpaceOnUse">
<stop stop-color="#C3C3C3" stop-opacity="0"/>
<stop offset="0.267" stop-color="#A4A4A4" stop-opacity="0.267"/>
<stop offset="0.542" stop-color="#8B8B8B" stop-opacity="0.542"/>
<stop offset="0.794" stop-color="#7C7C7C" stop-opacity="0.794"/>
<stop offset="1" stop-color="#777777"/>
</linearGradient>
<linearGradient id="paint16_linear" x1="18.5367" y1="21.1924" x2="18.5367" y2="29.0816" gradientUnits="userSpaceOnUse">
<stop stop-color="#62E1FB"/>
<stop offset="1" stop-color="#00A2F3"/>
</linearGradient>
<linearGradient id="paint17_linear" x1="27.1065" y1="21.1924" x2="27.1065" y2="29.0816" gradientUnits="userSpaceOnUse">
<stop stop-color="#62E1FB"/>
<stop offset="1" stop-color="#00A2F3"/>
</linearGradient>
<linearGradient id="paint18_linear" x1="20.2187" y1="20.1309" x2="27.7316" y2="27.6786" gradientUnits="userSpaceOnUse">
<stop stop-color="#FFB92D"/>
<stop offset="1" stop-color="#F59500"/>
</linearGradient>
</defs>
</svg>
