<svg width="16" height="18" viewBox="0 0 16 18" fill="none" xmlns="http://www.w3.org/2000/svg">
<path d="M7.27295 17.2308C8.59008 17.2308 9.69188 16.3039 9.9449 15.0769H4.60101C4.85416 16.3039 5.95596 17.2308 7.27295 17.2308Z" fill="#192341"/>
<path d="M12.3725 8.61473C12.3695 8.61473 12.3666 8.61539 12.3637 8.61539C9.55725 8.61539 7.27295 6.36097 7.27295 3.58979C7.27295 2.82798 7.45046 2.10784 7.75953 1.46026C7.59947 1.44528 7.43727 1.43594 7.27295 1.43594C4.46145 1.43594 2.18222 3.68589 2.18222 6.46154V8.46316C2.18222 9.88398 1.55168 11.2251 0.445488 12.1484C0.0767559 12.4593 -0.0869029 12.9546 0.0454623 13.4379C0.199667 14 0.762552 14.359 1.35313 14.359H13.1892C13.8088 14.359 14.3928 13.9627 14.5185 13.3632C14.616 12.8994 14.4488 12.4363 14.0844 12.1341C13.027 11.2589 12.4154 9.97298 12.3725 8.61473Z" fill="#192341"/>
<path d="M16 3.58979C16 5.57234 14.3721 7.17944 12.3637 7.17944C10.3554 7.17944 8.72749 5.57234 8.72749 3.58979C8.72749 1.60723 10.3554 0 12.3637 0C14.3721 0 16 1.60723 16 3.58979Z" fill="#4A63AD"/>
</svg>
