<svg width="38" height="38" viewBox="0 0 38 38" fill="none" xmlns="http://www.w3.org/2000/svg">
<path d="M15.6288 34.8215L12.7259 34.2168L11.0461 35.9852L5.32027 31.3913L9.13906 28.7424L13.1993 24.2257C13.8801 23.4686 15.0829 23.578 15.6204 24.4458L20.431 30.0537C21.1581 30.9016 20.9526 32.2114 20.002 32.787L17.1677 34.5023C16.6731 34.8065 16.202 34.8324 15.6288 34.8215Z" fill="#FFE7CF"/>
<path d="M20.4313 30.0537L19.2575 28.6852L14.3622 31.6506C13.8673 31.9545 13.3962 31.9804 12.823 31.9698L10.2805 31.6913L8.08435 33.6088L11.0464 35.9852L12.7259 34.2168L15.6289 34.8218C16.202 34.8324 16.6731 34.8065 17.168 34.5026L20.0023 32.787C20.9526 32.2114 21.1584 30.9015 20.4313 30.0537Z" fill="#EFD5BD"/>
<path d="M20.2898 30.1734C19.723 29.2799 19.0327 29.7322 18.4659 28.8384C17.8991 27.9449 18.5894 27.4926 18.0229 26.5991C17.4559 25.7053 16.7656 26.1577 16.1988 25.2636C15.6317 24.3698 16.3223 23.9174 15.7552 23.0236C15.4088 22.4773 14.7811 21.3498 14.3987 21.1945L11.3395 22.731L16.6632 31.2658C17.1828 32.0847 18.2572 32.3208 19.0632 31.7927L20.0816 31.1252C20.393 30.9213 20.4939 30.4984 20.2944 30.181C20.293 30.1784 20.2915 30.176 20.2898 30.1734Z" fill="#344A5D"/>
<path d="M11.49 24.0521L9.08657 25.5592C8.63053 25.8453 8.03272 25.7015 7.75121 25.2379L6.39266 22.9998C6.11144 22.5362 6.25292 21.9286 6.70896 21.6425L9.11237 20.1354C9.39446 19.9583 9.76439 20.0473 9.93863 20.3343L11.6854 23.2123C11.8596 23.499 11.7721 23.875 11.49 24.0521Z" fill="#344A5D"/>
<path d="M12.9645 16.0564L8.08604 19.1158C7.44416 19.5184 7.24499 20.3738 7.64101 21.0263L10.0465 24.9889C10.4428 25.6414 11.2841 25.8441 11.926 25.4416L16.8044 22.3821L32.2338 18.9682L22.8869 3.57043L12.9645 16.0564Z" fill="#FED066"/>
<path d="M30.0316 15.3403L14.6817 18.8853C14.6817 18.8853 9.39681 22.2 8.64128 22.6739L10.0465 24.9889C10.4425 25.6414 11.2842 25.8441 11.926 25.4416L16.8042 22.3821L32.2339 18.9682L30.0316 15.3403Z" fill="#F5B556"/>
<path d="M16.8044 22.3821L11.926 25.4416C11.2841 25.8441 10.4428 25.6414 10.0465 24.9889L7.64101 21.0263C7.24499 20.3738 7.44416 19.5183 8.08604 19.1158L12.9645 16.0563L16.8044 22.3821Z" fill="#FD715C"/>
<path d="M14.6817 18.8853C14.6817 18.8853 9.39681 22.2 8.64128 22.6739L10.0465 24.9889C10.4425 25.6414 11.2842 25.8441 11.926 25.4416L16.8042 22.3821L14.6817 18.8853Z" fill="#D83E3A"/>
<path d="M33.1595 20.0624L32.4936 20.4799C32.1483 20.6962 31.6957 20.5875 31.4829 20.2365L21.4347 3.6836C21.2219 3.33262 21.3289 2.87291 21.6742 2.65631L22.3401 2.23874C22.6854 2.02214 23.1377 2.13118 23.3508 2.48186L33.3987 19.0351C33.6118 19.3858 33.5045 19.8458 33.1595 20.0624Z" fill="#FD715C"/>
<path d="M33.3987 19.035L31.7456 16.3115L29.8299 17.5133L31.483 20.2365C31.6958 20.5875 32.1483 20.6962 32.4936 20.4799L33.1596 20.0623C33.5046 19.8457 33.6118 19.3857 33.3987 19.035Z" fill="#D83E3A"/>
<path d="M18.7759 32.4272C19.1388 33.0313 19.9152 33.2219 20.5096 32.8527L22.3482 31.7105C22.9423 31.3415 23.1295 30.5526 22.7666 29.9488C22.4036 29.3444 21.6272 29.1538 21.0329 29.523L19.1942 30.6655C18.6002 31.0345 18.4129 31.823 18.7759 32.4272Z" fill="#FFE7CF"/>
<path d="M22.7666 29.9488C22.6178 29.701 22.399 29.5242 22.1522 29.4255C22.2169 29.9138 22.0009 30.4177 21.5608 30.6911L19.7222 31.8334C19.3717 32.0511 18.9579 32.0726 18.6028 31.9309C18.6254 32.1015 18.6816 32.2704 18.7759 32.4272C19.1388 33.0313 19.9152 33.2219 20.5096 32.8527L22.3479 31.7105C22.9423 31.3412 23.1296 30.5526 22.7666 29.9488Z" fill="#EFD5BD"/>
<path d="M17.9885 29.9046C18.357 30.5182 19.145 30.7115 19.7486 30.3366L21.5545 29.2148C22.1575 28.8399 22.3477 28.0396 21.9792 27.4263C21.6107 26.8131 20.8227 26.6195 20.2194 26.9943L18.4132 28.1165C17.8102 28.491 17.62 29.2917 17.9885 29.9046Z" fill="#FFE7CF"/>
<path d="M21.9791 27.4263C21.8324 27.182 21.6185 27.0058 21.377 26.9038C21.4382 27.3965 21.219 27.9025 20.7754 28.178L18.9695 29.3002C18.6063 29.5256 18.1769 29.5442 17.8116 29.3904C17.8336 29.5675 17.891 29.7425 17.9884 29.9046C18.3569 30.5182 19.1449 30.7115 19.7485 30.3366L21.5544 29.2148C22.1574 28.8399 22.3476 28.0395 21.9791 27.4263Z" fill="#EFD5BD"/>
<path d="M16.6424 27.6986C17.0109 28.3118 17.7989 28.5055 18.4025 28.1306L20.2084 27.0084C20.8114 26.6339 21.0016 25.8332 20.6334 25.2203C20.2646 24.6067 19.4766 24.4134 18.8733 24.7883L17.0674 25.9101C16.4644 26.2847 16.2739 27.0854 16.6424 27.6986Z" fill="#FFE7CF"/>
<path d="M20.6334 25.22C20.4896 24.9807 20.2814 24.8065 20.046 24.7037C20.0991 25.1902 19.8805 25.6867 19.4424 25.9587L17.6365 27.0806C17.2686 27.3093 16.8323 27.3255 16.4638 27.1649C16.4841 27.3485 16.5415 27.5306 16.6424 27.6983C17.0109 28.3118 17.7991 28.5054 18.4025 28.1303L20.2084 27.0084C20.8114 26.6339 21.0016 25.8332 20.6334 25.22Z" fill="#EFD5BD"/>
<path d="M15.3735 25.436C15.7422 26.0492 16.5302 26.2428 17.1335 25.868L18.9394 24.7458C19.5425 24.3713 19.7326 23.5706 19.3644 22.9577C18.996 22.3441 18.2077 22.1508 17.6044 22.5256L15.7985 23.6475C15.1954 24.0221 15.0053 24.8227 15.3735 25.436Z" fill="#FFE7CF"/>
<path d="M19.3644 22.9576C19.1948 22.6753 18.9359 22.4832 18.6477 22.3933C18.7576 22.9181 18.5404 23.4789 18.0644 23.7748L16.2585 24.897C15.9326 25.0991 15.5534 25.1345 15.2151 25.029C15.2447 25.169 15.296 25.3069 15.3737 25.436C15.7422 26.0492 16.5302 26.2428 17.1335 25.868L18.9397 24.7461C19.5427 24.3713 19.7326 23.5706 19.3644 22.9576Z" fill="#EFD5BD"/>
<path d="M18.0827 27.0102L17.7478 27.2183C17.2207 27.5454 16.5397 27.3886 16.2263 26.8676L15.6711 25.9455C15.3995 25.4943 14.8086 25.36 14.3541 25.6467C13.8977 29.0503 9.13903 28.7427 9.13903 28.7427L12.0881 24.2278C12.2826 23.8859 12.5589 23.5966 12.8911 23.387L14.5555 22.3379C15.3647 21.8278 16.4165 22.0662 16.9007 22.8693L18.4691 25.4714C18.7837 25.993 18.6106 26.6822 18.0827 27.0102Z" fill="#FFE7CF"/>
<path d="M18.4691 25.4714L18.4564 25.4501C18.3656 25.5984 18.2404 25.7286 18.083 25.8268L17.7478 26.0348C17.221 26.3622 16.54 26.2051 16.2263 25.6841L15.6714 24.762C15.3998 24.3109 14.8086 24.1765 14.354 24.4632C14.1627 25.8907 13.304 27.2583 12.3458 28.1955C13.3153 27.7626 14.1731 26.9967 14.354 25.6467C14.8086 25.36 15.3998 25.494 15.6714 25.9455L16.2263 26.8676C16.5397 27.3886 17.221 27.5457 17.7478 27.2183L18.083 27.0102C18.6106 26.6822 18.7837 25.993 18.4691 25.4714Z" fill="#EFD5BD"/>
<path d="M11.1383 36.0966L6.44773 30.4307L7.99212 29.1096C8.04112 29.068 8.1136 29.0742 8.15476 29.1237L12.6969 34.6102C12.7381 34.6597 12.7317 34.7337 12.683 34.7752L11.1383 36.0966Z" fill="#CDD6DF"/>
<path d="M12.6969 34.6102L10.2805 31.6913L8.64765 33.0878L11.1383 36.0963L12.683 34.7752C12.7317 34.7337 12.7378 34.6597 12.6969 34.6102Z" fill="#96A4AA"/>
<path d="M11.4732 36.0436L6.40342 29.9986C6.36312 29.9503 6.29325 29.9409 6.24194 29.9765L0.842525 34.3087C0.661907 34.4537 0.556667 34.6744 0.556667 34.9081V36.6707C0.556667 37.0924 0.892971 37.4342 1.30784 37.4342H10.1405C10.368 37.4342 10.5834 37.3293 10.7261 37.1489L11.4683 36.2104C11.5118 36.1641 11.5141 36.0922 11.4732 36.0436Z" fill="#3C5666"/>
<path d="M11.4732 36.0436L9.06921 33.1771L5.53019 37.4342H10.1404C10.368 37.4342 10.5834 37.3293 10.7261 37.1489L11.4683 36.2101C11.5118 36.1641 11.5141 36.0922 11.4732 36.0436Z" fill="#194451"/>
<path d="M30.0145 9.25467C30.1198 9.42854 30.3024 9.52402 30.4894 9.52402C30.5889 9.52402 30.6895 9.4969 30.7805 9.44003L33.7979 7.55344C34.0597 7.38989 34.1415 7.04127 33.9803 6.77517C33.8194 6.50906 33.4764 6.42596 33.2143 6.58981L30.1972 8.4764C29.9354 8.63995 29.8536 8.98857 30.0145 9.25467Z" fill="black"/>
<path d="M37.4973 13.014L33.0737 12.5773C32.7678 12.5466 32.4956 12.7747 32.4657 13.0856C32.4362 13.3968 32.66 13.6735 32.9661 13.7036L37.3894 14.1403C37.408 14.1421 37.4259 14.1429 37.4439 14.1429C37.7272 14.1429 37.9695 13.9243 37.9974 13.632C38.0269 13.3211 37.8031 13.0443 37.4973 13.014Z" fill="black"/>
<path d="M27.7561 5.3032C27.8222 5.32942 27.8906 5.34209 27.9576 5.34209C28.1805 5.34209 28.391 5.20506 28.4765 4.9811L30.0876 0.770895C30.1992 0.479743 30.0571 0.151755 29.7707 0.0385953C29.4843 -0.0745649 29.1616 0.0695375 29.0503 0.360689L27.4389 4.5709C27.3276 4.86205 27.4693 5.19004 27.7561 5.3032Z" fill="black"/>
<path d="M23.8245 2.1848C23.4505 1.56919 22.6538 1.37706 22.0479 1.7572L21.3819 2.17478C21.0883 2.35866 20.883 2.64805 20.8036 2.989C20.7241 3.33025 20.7801 3.6824 20.961 3.98062L21.344 4.61126L12.5911 15.6255L10.7426 16.7848C10.4811 16.949 10.3999 17.2976 10.5614 17.5634C10.6666 17.7367 10.849 17.8321 11.0357 17.8321C11.1351 17.8321 11.2363 17.805 11.3273 17.7479L12.783 16.8349L15.6199 21.5084C15.2099 21.4813 14.8011 21.5676 14.4297 21.7615C14.4231 21.7647 14.4167 21.7683 14.41 21.7718C14.3602 21.7986 14.3106 21.8266 14.2622 21.857L12.5978 22.9061C12.4151 23.0213 12.2467 23.1574 12.0936 23.3098C11.9083 23.494 11.7463 23.7017 11.6152 23.9286L11.2044 24.5581L10.9023 25.0202C10.8997 25.0193 10.8968 25.0184 10.8945 25.0175C10.8899 25.0154 10.8855 25.0131 10.8809 25.011C10.8574 25.0004 10.8342 24.9886 10.8119 24.976C10.8069 24.9733 10.8023 24.9707 10.7977 24.968C10.773 24.953 10.749 24.9368 10.7261 24.9194C10.7211 24.9158 10.7165 24.912 10.7118 24.9082C10.691 24.8917 10.6704 24.874 10.651 24.8551C10.6486 24.8528 10.646 24.8507 10.6437 24.8484C10.6228 24.8277 10.6031 24.8053 10.5843 24.7824C10.5802 24.7773 10.5765 24.772 10.5724 24.767C10.5538 24.7429 10.5362 24.7181 10.5202 24.6919L8.11477 20.7292C8.00113 20.5421 7.96605 20.3214 8.01591 20.1077C8.06578 19.8938 8.1945 19.7125 8.37831 19.5973L9.09846 19.1459C9.35997 18.9817 9.44143 18.6331 9.27995 18.3673C9.11847 18.1012 8.77549 18.0187 8.51399 18.1828L7.79384 18.6343C7.35693 18.9083 7.05107 19.3389 6.93249 19.8469C6.85624 20.1749 6.86436 20.5097 6.95192 20.8253L6.41644 21.1612C5.70006 21.6106 5.47682 22.5687 5.91894 23.2971L7.27749 25.5353C7.49145 25.888 7.82805 26.1347 8.22494 26.2304C8.34265 26.2587 8.46151 26.2729 8.5798 26.2729C8.85957 26.2729 9.13441 26.1942 9.37852 26.041L9.91487 25.7047C10.0268 25.8082 10.1494 25.8974 10.281 25.9711L8.73549 28.3375L8.37106 28.5903C8.2951 28.5511 8.21161 28.5264 8.12405 28.5187C7.94488 28.5034 7.77093 28.5594 7.6338 28.6767L6.67476 29.4971C6.45123 29.3521 6.15812 29.3497 5.92851 29.5089C5.91778 29.5165 5.90706 29.5242 5.89691 29.5324L0.497497 33.8646C0.181198 34.1184 0 34.4988 0 34.9081V36.6707C0 37.4035 0.586792 38 1.30782 38H10.1404C10.5388 38 10.9104 37.819 11.1601 37.5031L11.8924 36.5769C12.0205 36.4278 12.075 36.2369 12.0556 36.0515L13.041 35.2084C13.1373 35.1262 13.2066 35.0207 13.2454 34.9025L15.5169 35.3758C15.5506 35.3829 15.5845 35.3867 15.6187 35.3873C15.6851 35.3885 15.7512 35.3893 15.8173 35.3893C16.3557 35.3893 16.8906 35.3339 17.4527 34.9886L19.741 33.6032C19.7793 33.6056 19.8176 33.6071 19.8555 33.6071C20.1858 33.6071 20.511 33.5148 20.8001 33.3351L22.6384 32.1929C23.4934 31.6618 23.7642 30.5226 23.2418 29.6535C23.0635 29.3565 22.8112 29.1237 22.5132 28.9705C22.8017 28.4085 22.8025 27.7104 22.4544 27.131C22.2015 26.7105 21.8041 26.414 21.3341 26.2944C21.4312 25.8412 21.3643 25.3511 21.1083 24.925C20.8665 24.5221 20.4913 24.2351 20.048 24.1057C20.1692 23.6325 20.1095 23.1118 19.8396 22.6624C19.7694 22.5457 19.6874 22.4396 19.5966 22.3429L30.6262 19.9026L31.0092 20.5332C31.253 20.9349 31.6766 21.1562 32.11 21.1562C32.3411 21.1562 32.5751 21.0934 32.7858 20.9611L33.4518 20.5436C33.7452 20.3594 33.9507 20.0703 34.0302 19.729C34.1096 19.3881 34.0536 19.0359 33.8724 18.7374L23.8245 2.1848ZM8.79434 25.0779C8.70012 25.1369 8.58908 25.1551 8.48181 25.1292C8.37425 25.1033 8.28322 25.0364 8.22494 24.9409L6.86639 22.7027C6.74666 22.5056 6.80725 22.246 7.0012 22.124L7.47348 21.8278L9.26661 24.7815L8.79434 25.0779ZM10.292 36.7944C10.2549 36.8416 10.1999 36.8684 10.1404 36.8684H1.30782C1.20055 36.8684 1.11328 36.7797 1.11328 36.6707V34.9081C1.11328 34.8471 1.14024 34.7905 1.18721 34.7528L6.25148 30.6894L10.8159 36.132L10.292 36.7944ZM11.4239 35.1126L7.42013 30.3384L8.01301 29.8312L11.9869 34.6314L11.4239 35.1126ZM16.8801 34.0182C16.5403 34.2271 16.2214 34.2639 15.6897 34.2569L12.8378 33.6625C12.7703 33.6483 12.7021 33.6472 12.6363 33.6581L9.13557 29.4299L9.45274 29.2097C9.45303 29.2097 9.45332 29.2094 9.4539 29.2092C9.45912 29.2053 9.46434 29.2009 9.46955 29.1971C9.48144 29.1879 9.49333 29.1788 9.50434 29.1691C9.50985 29.1641 9.51507 29.1588 9.52029 29.1538C9.5316 29.1431 9.54203 29.1322 9.55218 29.1207C9.55624 29.1163 9.56059 29.1116 9.56436 29.1069C9.57682 29.0916 9.58871 29.076 9.59944 29.0597C9.6006 29.0583 9.60176 29.0571 9.60263 29.0556L9.60524 29.0518C9.60611 29.0503 9.60698 29.0488 9.60785 29.0474L12.5517 24.5407C12.558 24.531 12.5641 24.521 12.5699 24.5109C12.7184 24.2501 12.9309 24.0279 13.1845 23.8679L14.849 22.8188C14.8797 22.7994 14.911 22.782 14.9426 22.7658C14.9568 22.7584 14.9713 22.7522 14.9855 22.7455C15.0023 22.7378 15.0189 22.7301 15.036 22.7234C15.0554 22.7154 15.0748 22.708 15.0948 22.7013C15.105 22.6974 15.1154 22.6942 15.1258 22.691C15.1502 22.6833 15.1748 22.6759 15.1995 22.6697H15.1998C15.2893 22.6476 15.3804 22.6367 15.4711 22.6361C15.4732 22.6361 15.4752 22.6361 15.4769 22.6361C15.5036 22.6361 15.53 22.6373 15.5564 22.6391C15.5648 22.64 15.5732 22.6406 15.5819 22.6414C15.6054 22.6435 15.6285 22.6462 15.6517 22.6497C15.6654 22.6518 15.6793 22.6547 15.6932 22.6574C15.7286 22.6641 15.7636 22.6727 15.7982 22.683C15.8115 22.6868 15.8251 22.6904 15.8382 22.6945C15.8558 22.7007 15.8729 22.7075 15.8903 22.7145C15.904 22.7198 15.9179 22.7251 15.9312 22.731C15.9483 22.7384 15.9654 22.7466 15.9822 22.7552C15.995 22.7617 16.0075 22.7682 16.0196 22.7749C16.0365 22.7841 16.0533 22.7938 16.0698 22.8041C16.0811 22.8112 16.0921 22.8186 16.1031 22.8259C16.1197 22.8371 16.1362 22.8483 16.1521 22.8607C16.162 22.8681 16.1713 22.876 16.1806 22.8837C16.1971 22.8969 16.2133 22.9102 16.229 22.9246C16.3049 22.9942 16.3716 23.0743 16.4261 23.1648L16.467 23.2329L17.0604 24.2171L17.8052 25.4525L17.9946 25.7669C18.0125 25.7967 18.0273 25.8276 18.0386 25.8597C18.0734 25.9564 18.0789 26.0619 18.0543 26.1662C18.0189 26.3162 17.9258 26.4447 17.7925 26.5275L17.4576 26.7355L17.4573 26.7358C17.4342 26.75 17.4107 26.7621 17.3863 26.7727C17.3811 26.775 17.3759 26.7774 17.3707 26.7794C17.3466 26.7895 17.3222 26.7977 17.2976 26.8042C17.2947 26.8051 17.2915 26.8057 17.2886 26.8063C17.2654 26.8119 17.2422 26.816 17.219 26.8186C17.2144 26.8192 17.21 26.8198 17.2054 26.8204C17.1805 26.8225 17.1555 26.8231 17.1309 26.8222C17.1263 26.8219 17.1216 26.8216 17.117 26.8213C17.0918 26.8195 17.0668 26.8166 17.0422 26.8116C17.0419 26.8113 17.0416 26.8113 17.0413 26.8113C17.0149 26.8057 16.9894 26.798 16.9642 26.7886C16.9619 26.7877 16.9598 26.7871 16.9575 26.7862C16.9059 26.7662 16.8572 26.7379 16.8134 26.7017C16.8131 26.7017 16.8131 26.7014 16.8131 26.7014C16.7911 26.6831 16.7714 26.6636 16.7531 26.643C16.7517 26.6412 16.7502 26.6395 16.7485 26.6374C16.7311 26.6168 16.7149 26.5953 16.7012 26.5723L16.1463 25.6502C15.9396 25.3066 15.6117 25.0655 15.223 24.9718C14.8246 24.8755 14.4118 24.9444 14.061 25.1657C13.9198 25.2547 13.8253 25.403 13.8027 25.5701C13.7963 25.6184 13.7884 25.6658 13.78 25.7127C13.7737 25.7469 13.7664 25.7808 13.7589 25.8143C13.7566 25.8255 13.7542 25.837 13.7516 25.8482C13.7418 25.8907 13.731 25.9325 13.7192 25.9738C13.7189 25.9752 13.7183 25.977 13.7177 25.9788C13.6554 26.196 13.5678 26.3972 13.4553 26.5802C13.455 26.5805 13.455 26.5808 13.455 26.5811C13.2478 26.9188 12.9549 27.2044 12.5711 27.4416C12.3084 27.604 12.2249 27.952 12.3847 28.219C12.5444 28.486 12.8868 28.5709 13.1495 28.4085C13.4205 28.2408 13.6609 28.0528 13.8711 27.8456L16.1956 31.572C16.6238 32.2471 17.364 32.6387 18.1297 32.6387C18.1702 32.6387 18.2108 32.6367 18.2514 32.6343C18.2674 32.6638 18.2836 32.693 18.301 32.7221C18.3665 32.8309 18.4419 32.9311 18.5257 33.0221L16.8801 34.0182ZM17.3524 29.8583C17.3524 29.8586 17.3527 29.8589 17.3527 29.8592C17.362 29.8858 17.3721 29.9117 17.3828 29.9379C17.384 29.9409 17.3852 29.9441 17.3866 29.9473C17.3962 29.9709 17.4066 29.9942 17.4173 30.0175C17.4199 30.0225 17.422 30.0281 17.4246 30.0334C17.4347 30.0552 17.446 30.0767 17.4571 30.0982C17.4605 30.1047 17.4634 30.1112 17.4669 30.1174C17.4817 30.1451 17.4974 30.1725 17.5136 30.1996C17.5414 30.2462 17.5719 30.2907 17.6032 30.334C17.6145 30.3493 17.6261 30.3643 17.6377 30.3794C17.6583 30.4059 17.6794 30.4315 17.7012 30.4569C17.7165 30.4745 17.7316 30.4928 17.7476 30.5099C17.7594 30.5229 17.7725 30.5347 17.785 30.5473C17.8299 30.593 17.8769 30.636 17.9261 30.6767C17.9314 30.6808 17.9363 30.6852 17.9415 30.6891C18.0372 30.7663 18.1398 30.8332 18.2491 30.8895C18.1485 31.0819 18.0821 31.2905 18.0525 31.5054C17.6855 31.4821 17.3382 31.2855 17.1335 30.9625L14.5744 26.8602C14.693 26.6112 14.7843 26.3454 14.8464 26.0622C14.8861 26.0598 14.9261 26.0634 14.9655 26.0728C15.0635 26.0964 15.1455 26.1562 15.1966 26.2408L15.7515 27.1628C15.7523 27.164 15.7532 27.1652 15.7541 27.1667C15.7813 27.2118 15.8106 27.2554 15.8422 27.2975C15.8654 27.3285 15.8903 27.3573 15.9153 27.3862C15.924 27.3962 15.9318 27.4071 15.9408 27.4172C15.9419 27.4222 15.9434 27.4272 15.9446 27.4322C15.9533 27.4714 15.9631 27.5103 15.9741 27.5489C15.9776 27.5601 15.9808 27.5713 15.984 27.5825C15.9976 27.6261 16.0121 27.6694 16.0289 27.7118C16.0304 27.7163 16.0324 27.7204 16.0341 27.7245C16.0495 27.7634 16.0666 27.8014 16.0849 27.8391C16.0901 27.8501 16.0953 27.861 16.1008 27.8716C16.1217 27.9128 16.1434 27.9535 16.1672 27.9936C16.4197 28.4138 16.8166 28.7097 17.2857 28.8299C17.2132 29.167 17.2335 29.5239 17.3524 29.8583ZM17.7075 23.1244L17.8945 23.0083C18.0595 22.9058 18.2537 22.8748 18.4419 22.9208C18.6298 22.9671 18.7886 23.0847 18.8892 23.2523C19.0971 23.5983 18.9896 24.0518 18.6492 24.2631L18.4634 24.3786L17.9131 23.466L17.7075 23.1244ZM21.856 29.9208C22.0389 29.9656 22.1934 30.0802 22.2917 30.2435C22.4941 30.5803 22.3891 31.0218 22.0577 31.2278L20.2194 32.37C20.0718 32.4616 19.9002 32.4937 19.7312 32.4637C19.7216 32.4616 19.7117 32.4593 19.7019 32.4578C19.697 32.4566 19.6917 32.456 19.6868 32.4548C19.5036 32.4101 19.3491 32.2954 19.2508 32.1322C19.2067 32.0588 19.1783 31.9807 19.1623 31.9011C19.1621 31.8988 19.1621 31.8967 19.1615 31.8946C19.1174 31.6621 19.191 31.4246 19.3482 31.2596C19.3525 31.2552 19.3566 31.2505 19.3609 31.2463C19.3691 31.2384 19.3775 31.2307 19.3859 31.223C19.3943 31.2154 19.403 31.2077 19.4123 31.2007C19.4189 31.1951 19.4253 31.1898 19.4323 31.1844C19.4488 31.1721 19.4653 31.1603 19.483 31.1491C19.4836 31.1488 19.4842 31.1485 19.4844 31.1482L19.8497 30.9213C19.9141 30.8909 19.9773 30.8576 20.0388 30.8196L21.4452 29.9456C21.5756 29.8961 21.7174 29.8869 21.856 29.9208ZM20.5754 27.4407C20.725 27.3679 20.8932 27.3497 21.0567 27.3897C21.2445 27.4357 21.4034 27.5536 21.5043 27.7213C21.7122 28.0672 21.6043 28.5205 21.2642 28.7318L20.9332 28.9375C20.8682 28.9678 20.8044 29.002 20.7427 29.0403L19.3435 29.9093C19.0823 30.0137 18.7884 29.9524 18.5886 29.7649C18.5883 29.7646 18.5883 29.7646 18.5883 29.7646C18.5727 29.7499 18.5579 29.7349 18.5437 29.7187C18.5399 29.7142 18.5364 29.7095 18.5326 29.7051C18.5222 29.6927 18.5118 29.6804 18.5019 29.6671C18.4883 29.6485 18.4755 29.6294 18.4634 29.6096C18.4512 29.589 18.4402 29.5684 18.43 29.5472C18.4268 29.5404 18.4242 29.5336 18.421 29.5265C18.4146 29.5121 18.4083 29.4974 18.4028 29.4823C18.3999 29.4744 18.3975 29.4667 18.3949 29.4588C18.3903 29.4443 18.3859 29.4302 18.3822 29.4157C18.3801 29.4078 18.3781 29.3995 18.3764 29.3916C18.3732 29.3771 18.3703 29.3624 18.3677 29.3474C18.3665 29.3397 18.3654 29.332 18.3642 29.3244C18.3622 29.3091 18.3607 29.2937 18.3599 29.2784C18.3593 29.271 18.3587 29.2637 18.3584 29.2563C18.3578 29.2404 18.3578 29.2245 18.3584 29.2089C18.3584 29.2018 18.3584 29.195 18.359 29.1882C18.3596 29.172 18.3616 29.1561 18.3633 29.1402C18.3642 29.1334 18.3645 29.1266 18.3657 29.1199C18.3677 29.1057 18.3706 29.0916 18.3735 29.0774C18.4051 28.926 18.4831 28.7842 18.6054 28.6755C18.6103 28.6711 18.6147 28.6657 18.6196 28.6613C18.6266 28.6551 18.6332 28.649 18.6405 28.6431C18.6579 28.633 18.6756 28.6239 18.6927 28.6133L20.4989 27.4911C20.525 27.4749 20.5505 27.4581 20.5754 27.4407ZM19.7106 25.1834C19.8984 25.2294 20.0573 25.3473 20.1582 25.5149C20.3519 25.8373 20.2713 26.2531 19.984 26.4795C19.9654 26.4898 19.9472 26.5004 19.9289 26.5116L18.5344 27.378C18.539 27.3744 18.5434 27.3703 18.548 27.3665C18.5747 27.345 18.6014 27.3231 18.6263 27.3002C18.6419 27.286 18.6567 27.271 18.6718 27.2563C18.6944 27.2339 18.717 27.2112 18.7385 27.1873C18.7533 27.1714 18.7672 27.1546 18.7811 27.1381C18.8011 27.1139 18.8208 27.0898 18.8394 27.0647C18.8524 27.0473 18.8655 27.0296 18.8779 27.0114C18.8956 26.9857 18.9124 26.9595 18.929 26.9327C18.9403 26.9141 18.9516 26.8959 18.962 26.877C18.978 26.8487 18.9925 26.8195 19.0067 26.7904C19.0156 26.7718 19.0252 26.7538 19.0333 26.735C19.0478 26.7022 19.0606 26.6686 19.0733 26.6348C19.0791 26.6186 19.0861 26.6026 19.0916 26.5861C19.1087 26.5352 19.1241 26.4836 19.1365 26.4308C19.1484 26.3804 19.1577 26.3298 19.165 26.2791C19.1673 26.2629 19.1684 26.2467 19.1705 26.2304C19.1745 26.1957 19.1777 26.1612 19.1797 26.1264C19.1806 26.1076 19.1809 26.0887 19.1812 26.0698C19.1821 26.0374 19.1818 26.0053 19.1806 25.9732C19.18 25.954 19.1789 25.9349 19.1777 25.9157C19.1754 25.8833 19.1716 25.8509 19.1676 25.8188C19.1652 25.8008 19.1632 25.7828 19.1603 25.7651C19.1542 25.7286 19.1467 25.6926 19.138 25.6567C19.1351 25.6437 19.1328 25.6305 19.1296 25.6175C19.1168 25.5689 19.1023 25.5208 19.0852 25.4734C19.0817 25.4643 19.0777 25.4551 19.0739 25.4457C19.0617 25.4139 19.0499 25.3817 19.0357 25.3505L19.1635 25.2709C19.3285 25.1684 19.5227 25.1374 19.7106 25.1834ZM32.9467 19.4685C32.9404 19.4956 32.9215 19.5463 32.867 19.5805L32.2011 19.9984C32.1179 20.0505 32.008 20.0243 31.9564 19.9394L24.9453 8.38945C24.7841 8.12364 24.4412 8.04113 24.1794 8.20498C23.9179 8.36912 23.8367 8.71773 23.9982 8.98354L30.0067 18.8818L17.0712 21.7441L13.6452 16.1L21.9638 5.63235L22.6358 6.73979C22.7973 7.0056 23.1403 7.08811 23.4018 6.92426C23.6636 6.76012 23.7448 6.4115 23.5833 6.1454L21.9084 3.38653C21.8748 3.33113 21.8803 3.2772 21.8867 3.25009C21.8931 3.22269 21.9119 3.172 21.9664 3.13782L22.6324 2.72024C22.7159 2.66779 22.8254 2.69431 22.8771 2.77918L32.925 19.3321C32.9586 19.3875 32.9531 19.4414 32.9467 19.4685Z" fill="black"/>
</svg>
