<svg width="151" height="129" viewBox="0 0 151 129" fill="none" xmlns="http://www.w3.org/2000/svg">
<path d="M3.00578 61.1176L18.0347 54.1041L49.0945 102.197" stroke="black" stroke-width="9"/>
<circle r="8.01542" transform="matrix(-1 0 0 1 54.6052 114.22)" fill="#192341"/>
<circle r="8.01542" transform="matrix(-1 0 0 1 112.717 107.206)" fill="#192341"/>
<circle r="8.02796" transform="matrix(-1 0 0 1 54.6051 113.719)" stroke="black" stroke-width="13"/>
<circle r="8.02796" transform="matrix(-1 0 0 1 112.717 106.705)" stroke="black" stroke-width="13"/>
<path d="M79.6534 105.202L67.6302 107.707L68.1312 114.721L80.6553 115.222L77.6495 112.216L82.1582 109.711L79.6534 105.202Z" fill="black"/>
<path d="M93.1793 103.7H99.1909V111.214H86.6668V106.705L89.1716 108.709H91.6765L93.1793 106.705H94.1813L93.1793 103.7Z" fill="black"/>
<path d="M67.3883 23.7584L74.6053 20.2709L143.364 55.4803L145.512 63.8413L107.225 92.4361L64.528 69.6517L67.3883 23.7584Z" fill="#192341"/>
<path d="M62.4989 86.4432L65.8793 93.0222L58.9154 90.3825L62.4989 86.4432Z" fill="black"/>
<path d="M87.7436 102.463L82.7639 100.864L85.1812 105.42L87.7436 102.463Z" fill="black"/>
<path d="M88.7918 126.033L88.8884 121.025L86.2874 125.985L88.7918 126.033Z" fill="black"/>
<rect y="56.5767" width="3.28208" height="10.8047" transform="rotate(-26.6197 0 56.5767)" fill="#192341"/>
<path d="M75.4228 41.0947L74.9026 46.7607L71.0598 44.747L75.4228 41.0947Z" fill="white"/>
<path d="M70.6356 45.7702L70.1155 51.4363L66.2727 49.4225L70.6356 45.7702Z" fill="white"/>
<path d="M82.6745 44.979L82.1543 50.6451L78.3115 48.6313L82.6745 44.979Z" fill="white"/>
<path d="M77.8871 49.6546L77.367 55.3206L73.5242 53.3069L77.8871 49.6546Z" fill="white"/>
<path d="M89.9259 48.8634L89.4058 54.5294L85.563 52.5157L89.9259 48.8634Z" fill="white"/>
<path d="M85.1386 53.539L84.6185 59.205L80.7756 57.1913L85.1386 53.539Z" fill="white"/>
<path d="M97.1774 52.7477L96.6573 58.4137L92.8145 56.4L97.1774 52.7477Z" fill="white"/>
<path d="M92.39 57.4232L91.8699 63.0893L88.0271 61.0756L92.39 57.4232Z" fill="white"/>
<path d="M104.429 56.6321L103.909 62.2981L100.066 60.2844L104.429 56.6321Z" fill="white"/>
<path d="M99.6415 61.3076L99.1214 66.9737L95.2786 64.96L99.6415 61.3076Z" fill="white"/>
<path d="M111.681 60.5164L111.16 66.1824L107.318 64.1687L111.681 60.5164Z" fill="white"/>
<path d="M106.893 65.192L106.373 70.8581L102.53 68.8444L106.893 65.192Z" fill="white"/>
<path d="M118.932 64.4008L118.412 70.0668L114.569 68.0531L118.932 64.4008Z" fill="white"/>
<path d="M114.145 69.0764L113.625 74.7425L109.782 72.7288L114.145 69.0764Z" fill="white"/>
<path d="M126.183 68.2852L125.663 73.9512L121.821 71.9375L126.183 68.2852Z" fill="white"/>
<path d="M121.396 72.9607L120.876 78.6268L117.033 76.613L121.396 72.9607Z" fill="white"/>
<path d="M76.4565 48.1248L77.0267 42.4636L80.8515 44.5112L76.4565 48.1248Z" fill="white"/>
<path d="M69.0976 43.9652L69.6678 38.304L73.4927 40.3516L69.0976 43.9652Z" fill="white"/>
<path d="M71.6692 52.8003L72.2393 47.1391L76.0642 49.1868L71.6692 52.8003Z" fill="white"/>
<path d="M83.708 52.0092L84.2781 46.348L88.103 48.3956L83.708 52.0092Z" fill="white"/>
<path d="M78.9209 56.6847L79.491 51.0235L83.3159 53.0712L78.9209 56.6847Z" fill="white"/>
<path d="M90.9594 55.8935L91.5296 50.2323L95.3545 52.2799L90.9594 55.8935Z" fill="white"/>
<path d="M86.1723 60.5691L86.7425 54.9079L90.5674 56.9556L86.1723 60.5691Z" fill="white"/>
<path d="M98.2111 59.7779L98.7813 54.1167L102.606 56.1643L98.2111 59.7779Z" fill="white"/>
<path d="M93.4238 64.4534L93.994 58.7922L97.8188 60.8398L93.4238 64.4534Z" fill="white"/>
<path d="M105.463 63.6622L106.033 58.0009L109.858 60.0486L105.463 63.6622Z" fill="white"/>
<path d="M100.675 68.3378L101.245 62.6766L105.07 64.7242L100.675 68.3378Z" fill="white"/>
<path d="M112.714 67.5466L113.284 61.8853L117.109 63.933L112.714 67.5466Z" fill="white"/>
<path d="M107.927 72.2221L108.497 66.5609L112.322 68.6085L107.927 72.2221Z" fill="white"/>
<path d="M119.966 71.431L120.536 65.7697L124.361 67.8174L119.966 71.431Z" fill="white"/>
<path d="M115.178 76.1065L115.748 70.4453L119.573 72.4929L115.178 76.1065Z" fill="white"/>
<path d="M127.217 75.3152L127.787 69.654L131.612 71.7016L127.217 75.3152Z" fill="white"/>
<path d="M122.43 79.9908L123 74.3296L126.825 76.3772L122.43 79.9908Z" fill="white"/>
</svg>
