<svg width="26" height="24" viewBox="0 0 26 24" fill="none" xmlns="http://www.w3.org/2000/svg">
<path d="M22.5328 16.0403L25.2062 3.59H4.73572L7.71465 16.0403H22.5328Z" fill="#C0D0D6"/>
<path d="M25.2062 3.59H4.73572L5.194 5.57592H24.5951L25.2062 3.59Z" fill="#849DA9"/>
<path d="M22.5328 16.8805H7.71465C7.33276 16.8805 7.0272 16.6513 6.95081 16.2694L3.97192 3.74274C3.89553 3.51357 3.97192 3.28446 4.1247 3.13168C4.27748 2.9789 4.5066 2.82617 4.73577 2.82617H25.2062C25.4354 2.82617 25.6645 2.90256 25.8173 3.13168C25.9701 3.28446 26.0464 3.58996 25.9701 3.81913L23.2967 16.1931C23.2202 16.575 22.9147 16.8805 22.5328 16.8805ZM8.32567 15.2765H21.9217L24.2132 4.35381H5.72868L8.32567 15.2765Z" fill="#757B8D"/>
<path d="M4.73569 4.35379C4.35379 4.35379 4.04823 4.12462 3.97184 3.74273L3.36083 1.52764H0.763844C0.305506 1.52764 0 1.14574 0 0.763844C0 0.381948 0.381896 0 0.763844 0H3.9719C4.35379 0 4.65935 0.229169 4.73574 0.611065L5.49959 3.43722C5.57598 3.81912 5.34681 4.20107 4.96491 4.35379C4.88847 4.35379 4.81208 4.35379 4.73569 4.35379Z" fill="#757B8D"/>
<path d="M21.7689 20.776H5.19398C3.66634 20.776 2.44421 19.5538 2.44421 18.0262C2.44421 16.4986 3.66634 15.2764 5.19398 15.2764H21.7689C22.2272 15.2764 22.5328 15.6583 22.5328 16.0403C22.5328 16.4222 22.1509 16.8041 21.7689 16.8041H5.19398C4.50653 16.8041 3.97185 17.3388 3.97185 18.0262C3.97185 18.7137 4.50653 19.2484 5.19398 19.2484H21.7689C22.2272 19.2484 22.5328 19.6303 22.5328 20.0122C22.6091 20.4705 22.2272 20.776 21.7689 20.776Z" fill="#757B8D"/>
<path d="M20.0122 22.3036C21.2355 22.3036 22.2272 21.3119 22.2272 20.0885C22.2272 18.8652 21.2355 17.8734 20.0122 17.8734C18.7888 17.8734 17.7971 18.8652 17.7971 20.0885C17.7971 21.3119 18.7888 22.3036 20.0122 22.3036Z" fill="#C0D0D6"/>
<path d="M20.0121 20.8524C20.434 20.8524 20.776 20.5104 20.776 20.0886C20.776 19.6667 20.434 19.3247 20.0121 19.3247C19.5903 19.3247 19.2483 19.6667 19.2483 20.0886C19.2483 20.5104 19.5903 20.8524 20.0121 20.8524Z" fill="#849DA9"/>
<path d="M20.0122 23.0674C18.3318 23.0674 16.9569 21.6926 16.9569 20.0122C16.9569 18.3317 18.3318 16.9569 20.0122 16.9569C21.6926 16.9569 23.0674 18.3317 23.0674 20.0122C23.0674 21.6926 21.6925 23.0674 20.0122 23.0674ZM20.0122 18.6372C19.172 18.6372 18.5609 19.3247 18.5609 20.0885C18.5609 20.9287 19.2484 21.5397 20.0122 21.5397C20.776 21.5397 21.4634 20.8523 21.4634 20.0885C21.4634 19.2483 20.776 18.6372 20.0122 18.6372Z" fill="#757B8D"/>
<path d="M7.86737 22.3036C9.09073 22.3036 10.0825 21.3119 10.0825 20.0885C10.0825 18.8652 9.09073 17.8734 7.86737 17.8734C6.64401 17.8734 5.65228 18.8652 5.65228 20.0885C5.65228 21.3119 6.64401 22.3036 7.86737 22.3036Z" fill="#C0D0D6"/>
<path d="M7.86736 20.8524C8.28922 20.8524 8.6312 20.5104 8.6312 20.0886C8.6312 19.6667 8.28922 19.3247 7.86736 19.3247C7.4455 19.3247 7.10352 19.6667 7.10352 20.0886C7.10352 20.5104 7.4455 20.8524 7.86736 20.8524Z" fill="#849DA9"/>
<path d="M7.86735 23.0674C6.18693 23.0674 4.81207 21.6926 4.81207 20.0122C4.81207 18.3317 6.18693 16.9569 7.86735 16.9569C9.54776 16.9569 10.9226 18.3317 10.9226 20.0122C10.9226 21.6926 9.54776 23.0674 7.86735 23.0674ZM7.86735 18.6372C7.02716 18.6372 6.4161 19.3247 6.4161 20.0885C6.4161 20.9287 7.10355 21.5397 7.86735 21.5397C8.63114 21.5397 9.31859 20.8523 9.31859 20.0885C9.31865 19.2483 8.70758 18.6372 7.86735 18.6372Z" fill="#757B8D"/>
<path d="M11.4573 12.4503C10.999 12.4503 10.6935 12.0684 10.6935 11.6865V7.17995C10.6935 6.72167 11.0754 6.41611 11.4573 6.41611C11.9156 6.41611 12.2212 6.798 12.2212 7.17995V11.6865C12.2211 12.1448 11.9156 12.4503 11.4573 12.4503Z" fill="#757B8D"/>
<path d="M14.9709 12.4503C14.5127 12.4503 14.2071 12.0684 14.2071 11.6865V7.17995C14.2071 6.72167 14.589 6.41611 14.9709 6.41611C15.4292 6.41611 15.7348 6.798 15.7348 7.17995V11.6865C15.7348 12.1448 15.4292 12.4503 14.9709 12.4503Z" fill="#757B8D"/>
<path d="M18.4845 12.4503C18.0262 12.4503 17.7206 12.0684 17.7206 11.6865V7.17995C17.7206 6.72167 18.1025 6.41611 18.4845 6.41611C18.9428 6.41611 19.2483 6.798 19.2483 7.17995V11.6865C19.2483 12.1448 18.9428 12.4503 18.4845 12.4503Z" fill="#757B8D"/>
</svg>
