<svg width="21" height="21" viewBox="0 0 21 21" fill="none" xmlns="http://www.w3.org/2000/svg">
<g clip-path="url(#clip0)">
<path d="M4.60972 12.5696L3.8857 15.2725L1.23943 15.3285C0.448581 13.8616 0 12.1834 0 10.3999C0 8.67536 0.419413 7.04906 1.16285 5.61707H1.16342L3.51934 6.04899L4.55138 8.39078C4.33538 9.02051 4.21765 9.69651 4.21765 10.3999C4.21773 11.1634 4.35602 11.8948 4.60972 12.5696Z" fill="#FBBB00"/>
<path d="M20.6184 8.45712C20.7379 9.08624 20.8001 9.73596 20.8001 10.4C20.8001 11.1445 20.7219 11.8708 20.5727 12.5714C20.0665 14.9554 18.7436 17.0371 16.911 18.5103L16.9105 18.5097L13.9431 18.3583L13.5231 15.7366C14.7391 15.0234 15.6894 13.9074 16.1899 12.5714H10.6288V8.45712H16.2711H20.6184Z" fill="#518EF8"/>
<path d="M16.9101 18.5098L16.9107 18.5103C15.1284 19.9429 12.8644 20.8 10.3998 20.8C6.43926 20.8 2.99584 18.5863 1.23926 15.3286L4.60955 12.5698C5.48782 14.9138 7.74897 16.5823 10.3998 16.5823C11.5392 16.5823 12.6067 16.2743 13.5227 15.7366L16.9101 18.5098Z" fill="#28B446"/>
<path d="M17.0383 2.39429L13.6691 5.15257C12.7211 4.56001 11.6005 4.2177 10.4 4.2177C7.68913 4.2177 5.38569 5.96283 4.55141 8.39087L1.16341 5.61715H1.16284C2.89371 2.28001 6.38055 1.52588e-05 10.4 1.52588e-05C12.9234 1.52588e-05 15.2371 0.898884 17.0383 2.39429Z" fill="#F14336"/>
</g>
<defs>
<clipPath id="clip0">
<rect width="20.8" height="20.8" fill="white"/>
</clipPath>
</defs>
</svg>
