<svg width="17" height="17" viewBox="0 0 17 17" fill="none" xmlns="http://www.w3.org/2000/svg">
<path d="M17 11.5049C17 9.39532 15.7898 7.5126 13.9772 6.59679C13.9209 10.6416 10.6416 13.9209 6.5968 13.9772C7.51261 15.7898 9.39533 17 11.5049 17C12.494 17 13.4558 16.7366 14.301 16.2361L16.976 16.976L16.2361 14.3009C16.7366 13.4558 17 12.494 17 11.5049Z" fill="#192341"/>
<path d="M12.9824 6.49121C12.9824 2.91189 10.0705 0 6.49121 0C2.91189 0 0 2.91189 0 6.49121C0 7.65773 0.310501 8.79351 0.900116 9.79064L0.0238647 12.9584L3.19178 12.0823C4.18891 12.6719 5.32469 12.9824 6.49121 12.9824C10.0705 12.9824 12.9824 10.0705 12.9824 6.49121ZM5.49512 4.98047H4.49902C4.49902 3.88191 5.39265 2.98828 6.49121 2.98828C7.58977 2.98828 8.4834 3.88191 8.4834 4.98047C8.4834 5.53805 8.24734 6.07397 7.83555 6.45061L6.98926 7.22518V8.00195H5.99316V6.78654L7.16306 5.71574C7.37213 5.52443 7.4873 5.26334 7.4873 4.98047C7.4873 4.43119 7.04049 3.98438 6.49121 3.98438C5.94193 3.98438 5.49512 4.43119 5.49512 4.98047ZM5.99316 8.99805H6.98926V9.99414H5.99316V8.99805Z" fill="#192341"/>
</svg>
