<svg width="24" height="24" viewBox="0 0 24 24" fill="none" xmlns="http://www.w3.org/2000/svg">
<path d="M23.7275 10.59L13.9593 0.7574C13.9468 0.744744 13.9338 0.732463 13.9205 0.720557C12.8539 -0.237146 11.2421 -0.240568 10.1714 0.712635C10.1581 0.724494 10.1451 0.736729 10.1325 0.749291L0.275245 10.5872C-0.0912241 10.953 -0.0918335 11.5466 0.273932 11.913C0.639744 12.2795 1.23332 12.2801 1.59974 11.9143L2.34374 11.1718V19.2664C2.34374 21.3341 4.02599 23.0164 6.09374 23.0164H9.46874C9.98652 23.0164 10.4062 22.5966 10.4062 22.0789V14.4382H13.6875V22.0789C13.6875 22.5966 14.1072 23.0164 14.625 23.0164H17.9062C19.974 23.0164 21.6562 21.3341 21.6562 19.2664C21.6562 18.7486 21.2365 18.3289 20.7187 18.3289C20.201 18.3289 19.7812 18.7486 19.7812 19.2664C19.7812 20.3002 18.9401 21.1414 17.9062 21.1414H15.5625V13.5007C15.5625 12.983 15.1428 12.5632 14.625 12.5632H9.46874C8.95096 12.5632 8.53124 12.983 8.53124 13.5007V21.1414H6.09374C5.05987 21.1414 4.21874 20.3002 4.21874 19.2664V9.32887C4.21874 9.31949 4.2186 9.31016 4.21832 9.30088L11.435 2.09849C11.7862 1.80023 12.3013 1.80135 12.6512 2.10107L19.7812 9.2781V14.5789C19.7812 15.0966 20.201 15.5164 20.7187 15.5164C21.2365 15.5164 21.6562 15.0966 21.6562 14.5789V11.1654L22.3974 11.9115C22.5807 12.096 22.8215 12.1883 23.0625 12.1883C23.3014 12.1883 23.5404 12.0975 23.7232 11.9158C24.0905 11.5509 24.0925 10.9573 23.7275 10.59Z" fill="#757B8D"/>
</svg>
