<svg width="15" height="15" viewBox="0 0 15 15" fill="none" xmlns="http://www.w3.org/2000/svg">
<path d="M7.5 4.77271C5.99317 4.77271 4.77274 5.99317 4.77274 7.49997C4.77274 9.00676 5.99317 10.2273 7.5 10.2273C9.00683 10.2273 10.2273 9.00679 10.2273 7.5C10.2273 5.99321 9.00679 4.77271 7.5 4.77271ZM13.5954 6.81816C13.2818 3.97498 11.025 1.71818 8.18181 1.40455V0H6.81816V1.40455C3.97498 1.71818 1.71818 3.97498 1.40455 6.81816H0V8.18181H1.40455C1.71818 11.025 3.97502 13.2818 6.81819 13.5954V15H8.18181V13.5954C11.025 13.2818 13.2818 11.025 13.5954 8.18181H15V6.81816H13.5954ZM7.5 12.2727C4.86479 12.2727 2.72729 10.1352 2.72729 7.5C2.72729 4.86479 4.86479 2.72729 7.5 2.72729C10.1352 2.72729 12.2727 4.86476 12.2727 7.5C12.2727 10.1352 10.1352 12.2727 7.5 12.2727Z" fill="#192341"/>
</svg>
