<svg width="18" height="18" viewBox="0 0 18 18" fill="none" xmlns="http://www.w3.org/2000/svg">
<path d="M11.2499 9.74995C10.8352 9.74995 10.4999 10.086 10.4999 10.4999V13.5C10.4999 13.9132 10.1639 14.25 9.74986 14.25H7.49988V2.99995C7.49988 2.35945 7.09188 1.7872 6.47844 1.5742L6.25638 1.49991H9.74986C10.1639 1.49991 10.4999 1.83664 10.4999 2.25V4.5C10.4999 4.91391 10.8352 5.24995 11.2499 5.24995C11.6646 5.24995 11.9998 4.91391 11.9998 4.5V2.25C11.9998 1.00951 10.9903 0 9.74986 0H1.68748C1.65892 0 1.63502 0.0127716 1.60728 0.0164795C1.57117 0.0134583 1.5367 0 1.50003 0C0.672769 0 0 0.672638 0 1.49991V14.9999C0 15.6404 0.408001 16.2127 1.02144 16.4257L5.535 17.9302C5.68798 17.9775 5.84014 18 5.99999 18C6.82725 18 7.49988 17.3272 7.49988 16.5V15.75H9.74986C10.9903 15.75 11.9998 14.7405 11.9998 13.5V10.4999C11.9998 10.086 11.6646 9.74995 11.2499 9.74995Z" fill="#192341"/>
<path d="M17.7801 6.96972L14.7801 3.96977C14.5657 3.75526 14.2431 3.69072 13.9627 3.8069C13.6829 3.92322 13.4999 4.19691 13.4999 4.5V6.75H10.5C10.0859 6.75 9.74988 7.0859 9.74988 7.49995C9.74988 7.914 10.0859 8.24991 10.5 8.24991H13.4999V10.4999C13.4999 10.803 13.6829 11.0767 13.9627 11.193C14.2431 11.3092 14.5657 11.2446 14.7801 11.0303L17.7801 8.03018C18.0733 7.73698 18.0733 7.26292 17.7801 6.96972Z" fill="#192341"/>
</svg>
