<svg width="14" height="23" viewBox="0 0 14 23" fill="none" xmlns="http://www.w3.org/2000/svg">
<path d="M13.8042 20.0187L13.0263 10.4525C12.978 9.83616 12.4437 9.35355 11.8104 9.35355H10.2737V11.5754C10.2737 11.8506 10.0454 12.0733 9.76346 12.0733C9.48184 12.0733 9.25326 11.8506 9.25326 11.5754V9.35355H4.55949V11.5754C4.55949 11.8506 4.33091 12.0733 4.04929 12.0733C3.76732 12.0733 3.53908 11.8506 3.53908 11.5754V9.35355H2.00239C1.36908 9.35355 0.83472 9.83616 0.786438 10.4512L0.00822133 20.0201C-0.0519687 20.7865 0.220468 21.5492 0.755476 22.1128C1.29052 22.6764 2.049 23 2.8364 23H10.9764C11.7638 23 12.5223 22.6764 13.0573 22.1128C13.5923 21.5492 13.8647 20.7864 13.8042 20.0187ZM9.20498 15.1471L6.56624 17.7222C6.46659 17.8194 6.33596 17.8682 6.20538 17.8682C6.07475 17.8682 5.94417 17.8194 5.84451 17.7222L4.60781 16.5153C4.40849 16.3208 4.40849 16.0058 4.60781 15.8113C4.80712 15.6168 5.13026 15.6168 5.32924 15.8113L6.20541 16.666L8.48358 14.4428C8.68256 14.2487 9.00569 14.2487 9.20501 14.4428C9.40429 14.6373 9.40429 14.9526 9.20498 15.1471Z" fill="#192341"/>
<path d="M6.9064 6C5.04962 6 3.53912 7.47437 3.53912 9.28631V9.35368H4.55953V9.28631C4.55953 8.02335 5.61223 6.99574 6.90643 6.99574C8.20063 6.99574 9.25333 8.02335 9.25333 9.28631V9.35368H10.2737V9.28631C10.2737 7.47437 8.76317 6 6.9064 6Z" fill="black"/>
</svg>
