<svg width="28" height="28" viewBox="0 0 28 28" fill="none" xmlns="http://www.w3.org/2000/svg">
<path d="M0.000101937 5.24825L0.000102835 25.7746C-0.00858951 26.6726 0.533947 27.484 1.36699 27.8191C2.19354 28.1713 3.15145 27.9805 3.78003 27.3387L27.3388 3.77994C27.7546 3.37075 27.9894 2.81219 27.9907 2.22882C27.9901 1.93289 27.9311 1.63998 27.8169 1.36696C27.4823 0.534459 26.6719 -0.00796816 25.7747 6.94453e-05L5.24834 7.03425e-05C2.34983 1.51561e-05 0.000101811 2.34969 0.000101937 5.24825Z" fill="#192341"/>
<path d="M9.33017 15.7447C9.33023 16.0667 9.06923 16.3279 8.74718 16.328C8.70798 16.328 8.66884 16.324 8.63041 16.3161L4.68723 15.5278L6.82736 17.6644C7.05107 17.896 7.04467 18.2652 6.81304 18.489C6.58704 18.7072 6.22879 18.7072 6.00285 18.489L2.50402 14.9901C2.27627 14.7625 2.27622 14.3932 2.50391 14.1655C2.64163 14.0278 2.83898 13.9678 3.02999 14.0058L6.97317 14.7942L4.83653 12.6564C4.6049 12.4327 4.59845 12.0635 4.82221 11.8318C5.04592 11.6002 5.4151 11.5937 5.64679 11.8175C5.65165 11.8222 5.65641 11.8269 5.66111 11.8318L9.15993 15.3306C9.26949 15.4405 9.33077 15.5895 9.33017 15.7447Z" fill="#FAFAFA"/>
<path d="M12.829 12.2459C12.8293 12.4007 12.7681 12.5492 12.6587 12.6588L10.9093 14.4082C10.6816 14.6358 10.3125 14.6358 10.0847 14.4082L6.58591 10.9094C6.35827 10.6817 6.35827 10.3125 6.58591 10.0848L8.33532 8.33538C8.55908 8.10374 8.9282 8.09735 9.15989 8.32105C9.39152 8.54482 9.39792 8.91394 9.17421 9.14563C9.16951 9.15049 9.16476 9.15525 9.15989 9.15995L7.82219 10.4965L10.4964 13.1708L11.833 11.8342C12.0604 11.6062 12.4296 11.6057 12.6577 11.8332C12.7673 11.9426 12.829 12.091 12.829 12.2459Z" fill="#FAFAFA"/>
<path d="M10.4964 11.0796C10.4967 11.2344 10.4355 11.3829 10.3261 11.4925L9.15988 12.6587C8.92825 12.8824 8.55907 12.876 8.33531 12.6444C8.11707 12.4184 8.11707 12.0601 8.33531 11.8342L9.50157 10.6679C9.72964 10.4406 10.0989 10.4411 10.3262 10.6692C10.4349 10.7782 10.4961 10.9257 10.4964 11.0796Z" fill="#FAFAFA"/>
<path d="M17.4941 7.58074C17.4939 7.9028 17.2325 8.16368 16.9105 8.16346C16.848 8.16341 16.786 8.15335 16.7266 8.13356L14.3346 7.33583L15.1323 9.72787C15.2047 9.9518 15.1374 10.1973 14.9609 10.353C14.7826 10.5072 14.5291 10.539 14.3182 10.4335L9.65317 8.10092C9.36495 7.95698 9.24796 7.6066 9.39191 7.31833C9.53585 7.03006 9.88623 6.91313 10.1745 7.05707L13.58 8.75985L12.8592 6.59643C12.7907 6.38666 12.8452 6.15618 13.0003 5.99928C13.1565 5.84287 13.3878 5.7882 13.5975 5.85818L15.7598 6.57893L14.057 3.17343C13.913 2.88522 14.03 2.53484 14.3182 2.39084C14.6065 2.2469 14.9568 2.36384 15.1008 2.65211L17.4334 7.31718C17.4741 7.39908 17.4948 7.48939 17.4941 7.58074Z" fill="#FAFAFA"/>
</svg>
