<svg width="16" height="17" viewBox="0 0 16 17" fill="none" xmlns="http://www.w3.org/2000/svg">
<path d="M6.85056 16.23C8.09119 16.23 9.12899 15.3569 9.36731 14.2012H4.3338C4.57224 15.3569 5.61005 16.23 6.85056 16.23Z" fill="#192341"/>
<path d="M11.6539 8.11438C11.6511 8.11438 11.6484 8.115 11.6456 8.115C9.00216 8.115 6.85054 5.99152 6.85054 3.38129C6.85054 2.66372 7.01773 1.98541 7.30886 1.37545C7.15809 1.36133 7.00532 1.35254 6.85054 1.35254C4.20233 1.35254 2.05547 3.47181 2.05547 6.08625V7.97161C2.05547 9.30991 1.46156 10.5732 0.419614 11.4428C0.0722979 11.7356 -0.0818555 12.2022 0.0428219 12.6574C0.18807 13.1869 0.718262 13.525 1.27454 13.525H12.4231C13.0068 13.525 13.5569 13.1517 13.6753 12.5871C13.7671 12.1502 13.6096 11.714 13.2664 11.4293C12.2704 10.605 11.6943 9.39374 11.6539 8.11438Z" fill="#192341"/>
<path d="M15.0707 3.38129C15.0707 5.2487 13.5373 6.76246 11.6456 6.76246C9.75396 6.76246 8.22058 5.2487 8.22058 3.38129C8.22058 1.51389 9.75396 0 11.6456 0C13.5373 0 15.0707 1.51389 15.0707 3.38129Z" fill="#192341"/>
</svg>
