<svg width="11" height="11" viewBox="0 0 11 11" fill="none" xmlns="http://www.w3.org/2000/svg">
<path fill-rule="evenodd" clip-rule="evenodd" d="M8.40313 2.89967C8.44651 2.29238 7.94171 1.78759 7.33442 1.83097L4.28842 2.04854C4.04844 2.06568 3.82269 2.16877 3.65256 2.33889L0.707164 5.28429C0.31664 5.67482 0.316639 6.30798 0.707164 6.69851L3.53559 9.52693C3.92611 9.91746 4.55928 9.91746 4.94981 9.52693L7.8952 6.58153C8.06533 6.41141 8.16841 6.18565 8.18556 5.94567L8.40313 2.89967ZM6.69032 3.54367C6.41996 3.27331 5.98161 3.27331 5.71125 3.54367C5.44088 3.81403 5.44088 4.25238 5.71125 4.52274C5.98161 4.7931 6.41996 4.7931 6.69032 4.52274C6.96068 4.25238 6.96068 3.81403 6.69032 3.54367Z" fill="#192341"/>
</svg>
