<svg width="40" height="36" viewBox="0 0 40 36" fill="none" xmlns="http://www.w3.org/2000/svg">
<path d="M39.1302 18L34.7004 13.244L35.394 6.87676L28.9165 5.55072L25.6124 0L19.565 2.61368L18.7488 18L19.565 33.3863L25.6125 36L28.9165 30.4494L35.394 29.1232L34.7004 22.756L39.1302 18Z" fill="#192341"/>
<path d="M13.5177 0L10.2137 5.55072L3.73616 6.87684L4.42974 13.244L0 18L4.42974 22.756L3.73616 29.1232L10.2137 30.4494L13.5178 36L19.5652 33.3863V2.61368L13.5177 0Z" fill="#163180"/>
<path d="M27.7669 13.8572L26.0544 12.3789L19.5648 19.4099L18.7485 21.1572L19.5648 22.7436L27.7669 13.8572Z" fill="#F7F0EB"/>
<path d="M12.7447 16.3282L11.1216 17.898L17.946 24.4975L19.5648 22.7437V19.41L17.8513 21.2664L12.7447 16.3282Z" fill="#FFFBF5"/>
</svg>
