<svg width="17" height="15" viewBox="0 0 17 15" fill="none" xmlns="http://www.w3.org/2000/svg">
<path d="M16.3509 2.19858L5.93924 0.0175216C5.49873 -0.0747284 5.06212 0.206586 4.96893 0.642622L4.77112 1.90091L16.7845 4.41734L16.9823 3.15905C17.0755 2.72318 16.7914 2.29086 16.3509 2.19858Z" fill="#192341"/>
<path d="M11.9726 4.68419C11.851 4.25068 11.3933 3.99444 10.9555 4.11463L8.97896 4.65776L4.31943 3.68164L3.80698 6.07836L0.605177 6.95802C0.167397 7.07823 -0.0914664 7.53126 0.0299511 7.96463L1.83435 14.4009C1.95596 14.8342 2.41366 15.0906 2.85144 14.9703L13.2017 12.1271C13.6395 12.0067 13.8984 11.5539 13.777 11.1203L13.4672 10.0154L14.6281 10.2583C15.0686 10.3508 15.5052 10.0694 15.5984 9.6334L16.3328 6.1981L12.1515 5.32226L11.9726 4.68419ZM13.1679 7.95536L13.4239 6.75784C13.4623 6.57854 13.6419 6.46289 13.823 6.50075L15.0328 6.7543C15.2141 6.79235 15.3309 6.96995 15.2927 7.14942L15.0367 8.34693C14.9983 8.52624 14.8187 8.64205 14.6376 8.60403L13.4278 8.35065C13.2463 8.31245 13.1294 8.13466 13.1679 7.95536ZM0.78529 7.6003L3.64962 6.81374L10.408 4.95728L11.1352 4.75727C11.1485 4.75372 11.1618 4.75205 11.1747 4.75205C11.233 4.75205 11.3028 4.78994 11.3232 4.8625L11.4086 5.16688L11.6761 6.12111L1.0319 9.04496L0.678984 7.78651C0.656872 7.70754 0.705539 7.62219 0.78529 7.6003ZM13.1279 11.2984C13.1415 11.3472 13.1272 11.3876 13.1128 11.4129C13.0985 11.4381 13.0709 11.4712 13.0216 11.4846L2.6715 14.3278C2.65841 14.3314 2.64497 14.3332 2.63203 14.3332C2.57369 14.3332 2.50394 14.2951 2.48355 14.2226L1.4311 10.4684L12.0753 7.5444L12.7245 9.85981L13.1279 11.2984Z" fill="#192341"/>
<path d="M4.34388 11.5553C4.29421 11.3785 4.1078 11.2742 3.92921 11.3232L2.72045 11.6553C2.54204 11.7043 2.43642 11.889 2.48609 12.0658L2.82148 13.2621C2.87115 13.4389 3.05757 13.5433 3.23615 13.4941L4.44491 13.1621C4.62349 13.1131 4.72894 12.9284 4.67944 12.7517L4.34388 11.5553Z" fill="#192341"/>
</svg>
