<svg width="79" height="9" viewBox="0 0 79 9" fill="none" xmlns="http://www.w3.org/2000/svg">
<path d="M0.74 8V1H3.04C3.58667 1 4.03667 1.09 4.39 1.27C4.74333 1.45 5.00333 1.69333 5.17 2C5.34333 2.30667 5.43 2.65333 5.43 3.04C5.43 3.42 5.34667 3.76333 5.18 4.07C5.01333 4.37667 4.75333 4.62333 4.4 4.81C4.04667 4.99 3.59333 5.08 3.04 5.08H1.58V8H0.74ZM1.58 4.37H3.02C3.58 4.37 3.97667 4.25333 4.21 4.02C4.45 3.78 4.57 3.45333 4.57 3.04C4.57 2.62 4.45 2.29333 4.21 2.06C3.97667 1.82 3.58 1.7 3.02 1.7H1.58V4.37ZM6.68102 8V0.8H7.52102V3.89C7.68768 3.58333 7.92435 3.34667 8.23102 3.18C8.53768 3.00667 8.87102 2.92 9.23102 2.92C9.80435 2.92 10.2643 3.1 10.611 3.46C10.9577 3.81333 11.131 4.36 11.131 5.1V8H10.301V5.19C10.301 4.15667 9.88435 3.64 9.05102 3.64C8.61768 3.64 8.25435 3.79667 7.96102 4.11C7.66768 4.41667 7.52102 4.85667 7.52102 5.43V8H6.68102ZM14.8637 8.12C14.397 8.12 13.977 8.01333 13.6037 7.8C13.2303 7.58667 12.9337 7.28667 12.7137 6.9C12.5003 6.50667 12.3937 6.04667 12.3937 5.52C12.3937 4.99333 12.5037 4.53667 12.7237 4.15C12.9437 3.75667 13.2403 3.45333 13.6137 3.24C13.9937 3.02667 14.417 2.92 14.8837 2.92C15.3503 2.92 15.7703 3.02667 16.1437 3.24C16.517 3.45333 16.8103 3.75667 17.0237 4.15C17.2437 4.53667 17.3537 4.99333 17.3537 5.52C17.3537 6.04667 17.2437 6.50667 17.0237 6.9C16.8037 7.28667 16.5037 7.58667 16.1237 7.8C15.7503 8.01333 15.3303 8.12 14.8637 8.12ZM14.8637 7.4C15.1503 7.4 15.417 7.33 15.6637 7.19C15.9103 7.05 16.1103 6.84 16.2637 6.56C16.417 6.28 16.4937 5.93333 16.4937 5.52C16.4937 5.10667 16.417 4.76 16.2637 4.48C16.117 4.2 15.9203 3.99 15.6737 3.85C15.427 3.71 15.1637 3.64 14.8837 3.64C14.597 3.64 14.3303 3.71 14.0837 3.85C13.837 3.99 13.637 4.2 13.4837 4.48C13.3303 4.76 13.2537 5.10667 13.2537 5.52C13.2537 5.93333 13.3303 6.28 13.4837 6.56C13.637 6.84 13.8337 7.05 14.0737 7.19C14.3203 7.33 14.5837 7.4 14.8637 7.4ZM18.7216 8V3.04H19.4816L19.5316 3.93C19.6916 3.61667 19.9216 3.37 20.2216 3.19C20.5216 3.01 20.8616 2.92 21.2416 2.92C21.8283 2.92 22.295 3.1 22.6416 3.46C22.995 3.81333 23.1716 4.36 23.1716 5.1V8H22.3316V5.19C22.3316 4.15667 21.905 3.64 21.0516 3.64C20.625 3.64 20.2683 3.79667 19.9816 4.11C19.7016 4.41667 19.5616 4.85667 19.5616 5.43V8H18.7216ZM26.8743 8.12C26.401 8.12 25.981 8.01333 25.6143 7.8C25.2476 7.58 24.9576 7.27667 24.7443 6.89C24.5376 6.50333 24.4343 6.04667 24.4343 5.52C24.4343 5 24.5376 4.54667 24.7443 4.16C24.951 3.76667 25.2376 3.46333 25.6043 3.25C25.9776 3.03 26.4076 2.92 26.8943 2.92C27.3743 2.92 27.7876 3.03 28.1343 3.25C28.4876 3.46333 28.7576 3.74667 28.9443 4.1C29.131 4.45333 29.2243 4.83333 29.2243 5.24C29.2243 5.31333 29.221 5.38667 29.2143 5.46C29.2143 5.53333 29.2143 5.61667 29.2143 5.71H25.2643C25.2843 6.09 25.371 6.40667 25.5243 6.66C25.6843 6.90667 25.881 7.09333 26.1143 7.22C26.3543 7.34667 26.6076 7.41 26.8743 7.41C27.221 7.41 27.511 7.33 27.7443 7.17C27.9776 7.01 28.1476 6.79333 28.2543 6.52H29.0843C28.951 6.98 28.6943 7.36333 28.3143 7.67C27.941 7.97 27.461 8.12 26.8743 8.12ZM26.8743 3.63C26.4743 3.63 26.1176 3.75333 25.8043 4C25.4976 4.24 25.321 4.59333 25.2743 5.06H28.3943C28.3743 4.61333 28.221 4.26333 27.9343 4.01C27.6476 3.75667 27.2943 3.63 26.8743 3.63ZM33.4341 8V1H34.2741L38.0041 6.61V1H38.8441V8H38.0041L34.2741 2.39V8H33.4341ZM42.2887 8.12C41.702 8.12 41.2353 7.94333 40.8887 7.59C40.542 7.23 40.3687 6.68 40.3687 5.94V3.04H41.2087V5.85C41.2087 6.88333 41.632 7.4 42.4787 7.4C42.912 7.4 43.2687 7.24667 43.5487 6.94C43.8353 6.62667 43.9787 6.18333 43.9787 5.61V3.04H44.8187V8H44.0587L43.9987 7.11C43.8453 7.42333 43.6153 7.67 43.3087 7.85C43.0087 8.03 42.6687 8.12 42.2887 8.12ZM46.4013 8V3.04H47.1613L47.2213 3.76C47.3813 3.49333 47.5947 3.28667 47.8613 3.14C48.128 2.99333 48.428 2.92 48.7613 2.92C49.1547 2.92 49.4913 3 49.7713 3.16C50.058 3.32 50.278 3.56333 50.4313 3.89C50.6047 3.59 50.8413 3.35333 51.1413 3.18C51.448 3.00667 51.778 2.92 52.1313 2.92C52.7247 2.92 53.198 3.1 53.5513 3.46C53.9047 3.81333 54.0813 4.36 54.0813 5.1V8H53.2513V5.19C53.2513 4.67667 53.148 4.29 52.9413 4.03C52.7347 3.77 52.438 3.64 52.0513 3.64C51.6513 3.64 51.318 3.79667 51.0513 4.11C50.7913 4.41667 50.6613 4.85667 50.6613 5.43V8H49.8213V5.19C49.8213 4.67667 49.718 4.29 49.5113 4.03C49.3047 3.77 49.008 3.64 48.6213 3.64C48.228 3.64 47.898 3.79667 47.6313 4.11C47.3713 4.41667 47.2413 4.85667 47.2413 5.43V8H46.4013ZM58.1966 8.12C57.79 8.12 57.4266 8.03667 57.1066 7.87C56.7933 7.70333 56.5533 7.47 56.3866 7.17L56.3066 8H55.5466V0.8H56.3866V3.86C56.5466 3.62 56.7733 3.40333 57.0666 3.21C57.3666 3.01667 57.7466 2.92 58.2066 2.92C58.7 2.92 59.13 3.03333 59.4966 3.26C59.8633 3.48667 60.1466 3.79667 60.3466 4.19C60.5533 4.58333 60.6566 5.03 60.6566 5.53C60.6566 6.03 60.5533 6.47667 60.3466 6.87C60.1466 7.25667 59.86 7.56333 59.4866 7.79C59.12 8.01 58.69 8.12 58.1966 8.12ZM58.1066 7.39C58.44 7.39 58.7333 7.31333 58.9866 7.16C59.24 7 59.44 6.78 59.5866 6.5C59.7333 6.22 59.8066 5.89333 59.8066 5.52C59.8066 5.14667 59.7333 4.82 59.5866 4.54C59.44 4.26 59.24 4.04333 58.9866 3.89C58.7333 3.73 58.44 3.65 58.1066 3.65C57.7733 3.65 57.48 3.73 57.2266 3.89C56.9733 4.04333 56.7733 4.26 56.6266 4.54C56.48 4.82 56.4066 5.14667 56.4066 5.52C56.4066 5.89333 56.48 6.22 56.6266 6.5C56.7733 6.78 56.9733 7 57.2266 7.16C57.48 7.31333 57.7733 7.39 58.1066 7.39ZM64.2559 8.12C63.7826 8.12 63.3626 8.01333 62.9959 7.8C62.6293 7.58 62.3393 7.27667 62.1259 6.89C61.9193 6.50333 61.8159 6.04667 61.8159 5.52C61.8159 5 61.9193 4.54667 62.1259 4.16C62.3326 3.76667 62.6193 3.46333 62.9859 3.25C63.3593 3.03 63.7893 2.92 64.2759 2.92C64.7559 2.92 65.1693 3.03 65.5159 3.25C65.8693 3.46333 66.1393 3.74667 66.3259 4.1C66.5126 4.45333 66.6059 4.83333 66.6059 5.24C66.6059 5.31333 66.6026 5.38667 66.5959 5.46C66.5959 5.53333 66.5959 5.61667 66.5959 5.71H62.6459C62.6659 6.09 62.7526 6.40667 62.9059 6.66C63.0659 6.90667 63.2626 7.09333 63.4959 7.22C63.7359 7.34667 63.9893 7.41 64.2559 7.41C64.6026 7.41 64.8926 7.33 65.1259 7.17C65.3593 7.01 65.5293 6.79333 65.6359 6.52H66.4659C66.3326 6.98 66.0759 7.36333 65.6959 7.67C65.3226 7.97 64.8426 8.12 64.2559 8.12ZM64.2559 3.63C63.8559 3.63 63.4993 3.75333 63.1859 4C62.8793 4.24 62.7026 4.59333 62.6559 5.06H65.7759C65.7559 4.61333 65.6026 4.26333 65.3159 4.01C65.0293 3.75667 64.6759 3.63 64.2559 3.63ZM67.9193 8V3.04H68.6793L68.7493 3.99C68.9026 3.66333 69.136 3.40333 69.4493 3.21C69.7626 3.01667 70.1493 2.92 70.6093 2.92V3.8H70.3793C70.086 3.8 69.816 3.85333 69.5693 3.96C69.3226 4.06 69.126 4.23333 68.9793 4.48C68.8326 4.72667 68.7593 5.06667 68.7593 5.5V8H67.9193Z" fill="#192341"/>
<path d="M75.9886 4.4L76.1086 2.87L74.8686 3.74L74.5186 3.13L75.9086 2.52L74.5286 1.92L74.8586 1.33L76.1186 2.2L75.9786 0.67H76.6586L76.5086 2.2L77.7586 1.33L78.0786 1.91L76.6986 2.53L78.0886 3.14L77.7586 3.73L76.5086 2.87L76.6486 4.4H75.9886Z" fill="#FF0000"/>
</svg>
