<svg width="14" height="18" viewBox="0 0 14 18" fill="none" xmlns="http://www.w3.org/2000/svg">
<path d="M10.2353 0.308922V3.51563H13.4546L10.2353 0.308922Z" fill="#192341"/>
<path d="M7.97203 6.75H5.79262C5.3801 7.46729 4.68354 7.95649 3.88232 8.10714V10.6382C3.88232 12.5456 5.0813 14.2025 6.88232 14.8099C8.68335 14.2025 9.88233 12.5456 9.88233 10.6382V8.10714C9.08111 7.95649 8.38455 7.46726 7.97203 6.75ZM8.75408 10.1715L6.75756 12.1602C6.65418 12.2632 6.51869 12.3147 6.38323 12.3147C6.24777 12.3147 6.11224 12.2632 6.0089 12.1602L5.01064 11.1658C4.80389 10.9599 4.80389 10.626 5.01064 10.4201C5.21736 10.2141 5.55258 10.2141 5.75934 10.4201L6.38327 11.0415L8.00545 9.42571C8.21217 9.21976 8.5474 9.21976 8.75415 9.42571C8.96083 9.63165 8.96083 9.96553 8.75408 10.1715Z" fill="#192341"/>
<path d="M9.70588 4.57031C9.41351 4.57031 9.17647 4.3342 9.17647 4.04297V0H1.94118C0.870812 0 0 0.86741 0 1.93359V16.0664C0 17.1326 0.870812 18 1.94118 18H11.8235C12.8939 18 13.7647 17.1326 13.7647 16.0664V4.57031H9.70588ZM10.9412 10.6382C10.9412 11.8213 10.5664 12.9485 9.85736 13.8977C9.14834 14.8469 8.17218 15.5284 7.03447 15.8684C6.98485 15.8832 6.9336 15.8906 6.88235 15.8906C6.83111 15.8906 6.77986 15.8832 6.73024 15.8684C5.59253 15.5284 4.61636 14.8469 3.90734 13.8977C3.19832 12.9485 2.82353 11.8213 2.82353 10.6382V7.62891C2.82353 7.33767 3.06056 7.10156 3.35294 7.10156C4.02194 7.10156 4.62339 6.7313 4.92254 6.13529L4.99705 5.98686C5.08673 5.80816 5.27005 5.69531 5.47059 5.69531H8.29412C8.49466 5.69531 8.67798 5.80816 8.76766 5.98683L8.84216 6.13529C9.14132 6.7313 9.74276 7.10156 10.4118 7.10156C10.7041 7.10156 10.9412 7.33767 10.9412 7.62891V10.6382Z" fill="#192341"/>
</svg>
