<svg width="32" height="39" viewBox="0 0 32 39" fill="none" xmlns="http://www.w3.org/2000/svg">
<path d="M30.5942 34.1662L26.1351 33.1779L24.7531 37.5715C24.6537 37.8875 24.2288 37.9338 24.0647 37.6466L18.5483 27.9964C21.2656 27.4034 23.6833 25.9982 25.5398 24.0451L31.0033 33.6042C31.1673 33.8909 30.9151 34.2373 30.5942 34.1662Z" fill="#FD646F"/>
<path d="M30.5943 34.1662L26.4727 33.2526C26.2815 33.2102 26.0899 33.3217 26.0308 33.5095L24.7532 37.5715C24.6538 37.8874 24.229 37.9337 24.0648 37.6465L19.3389 29.3786L18.5484 27.9963C21.2657 27.4034 23.6834 25.9981 25.5399 24.045L26.3243 25.4166L31.0035 33.6041C31.1674 33.8909 30.9152 34.2373 30.5943 34.1662Z" fill="#FD646F"/>
<path d="M30.5942 34.1659L26.4729 33.2525C26.2815 33.2106 26.0901 33.3218 26.0311 33.5092L26.4747 32.121C26.5345 31.9338 26.7262 31.8232 26.9169 31.8659L30.4634 32.6598L31.0035 33.6044C31.1676 33.8909 30.915 34.2375 30.5942 34.1659Z" fill="#FC4755"/>
<path d="M13.5391 27.8806L7.93549 37.6818C7.77133 37.969 7.34649 37.9227 7.24708 37.6067L5.96938 33.5447C5.9103 33.3569 5.7186 33.2454 5.52751 33.2878L1.40594 34.2013C1.08504 34.2724 0.832904 33.926 0.996834 33.6393L6.2085 24.5211C8.15419 26.3787 10.7787 27.4229 13.5391 27.8806Z" fill="#FD646F"/>
<path d="M6.94608 25.8774L2.30201 34.0023L1.40618 34.201C1.08528 34.2723 0.833062 33.9259 0.996993 33.639L5.43318 25.8774L6.63282 23.7732C6.95584 24.0811 7.29323 24.3738 7.645 24.6489L6.94608 25.8774Z" fill="#FC4755"/>
<path d="M8.4821 36.7249L7.93515 37.6817C7.771 37.9689 7.34661 37.9232 7.24675 37.6071L5.96904 33.5451C5.91003 33.3569 5.71864 33.2457 5.52725 33.2876L6.94037 32.9745C7.13146 32.9322 7.32308 33.0436 7.38216 33.2314L8.4821 36.7249Z" fill="#FC4755"/>
<path d="M6.33461 24.2891L10.0201 25.9629L13.5391 27.8806L12.5955 29.5299C9.96447 28.992 7.52328 27.7587 5.50573 25.9424C5.48152 25.9209 5.45731 25.8995 5.43311 25.8774L6.33461 24.2891Z" fill="#FC4755"/>
<path d="M26.3243 25.4167L25.5398 24.0451L21.3886 25.8903L18.5483 27.9964L18.8676 28.5545L19.6515 29.9257L24.0647 37.6465C24.2289 37.9337 24.6537 37.8874 24.7531 37.5715L25.0342 36.678L20.6477 28.9836C22.7712 28.2394 24.7044 27.0288 26.3243 25.4167Z" fill="#FC4755"/>
<path d="M29.7296 14.4409C29.7296 18.1682 28.2733 21.5533 25.9033 24.0451C24.0468 25.9982 21.6291 27.4034 18.9118 27.9964C17.973 28.2011 16.9994 28.3088 16.0001 28.3088C15.2375 28.3088 14.4901 28.2462 13.7616 28.1255C11.1427 27.6915 8.77259 26.5086 6.87532 24.8016C6.77244 24.7099 6.67183 24.6167 6.57197 24.5212C6.21794 24.1835 5.88206 23.8266 5.56433 23.453C5.26022 23.0938 4.97427 22.7186 4.70723 22.329C3.90535 21.1607 3.27671 19.8608 2.85838 18.4686C2.47635 17.1941 2.27058 15.8423 2.27058 14.441C2.27058 6.78222 8.4178 0.573036 16.0001 0.573036C17.3867 0.573036 18.7257 0.78086 19.9868 1.16756C21.3658 1.58861 22.6519 2.22359 23.8093 3.03431C24.1951 3.30407 24.5665 3.59287 24.9213 3.9008C25.3964 4.31035 25.8427 4.75282 26.258 5.22347C28.4178 7.67385 29.7296 10.903 29.7296 14.4409Z" fill="#FAA515"/>
<path d="M16.0001 24.3738C21.4311 24.3738 25.8338 19.9266 25.8338 14.4408C25.8338 8.95502 21.4311 4.50789 16.0001 4.50789C10.569 4.50789 6.16634 8.95502 6.16634 14.4408C6.16634 19.9266 10.569 24.3738 16.0001 24.3738Z" fill="#FAD207"/>
<path d="M25.8337 14.4409C25.8337 19.9265 21.4309 24.3737 16.0001 24.3737C10.5693 24.3737 6.16652 19.9265 6.16652 14.4409C6.16652 14.0267 6.19148 13.6187 6.24066 13.2183C6.83677 18.1278 10.9793 21.9285 16.0001 21.9285C21.0209 21.9285 25.1634 18.1278 25.7595 13.2183C25.8087 13.6187 25.8337 14.0267 25.8337 14.4409Z" fill="#FAA515"/>
<path fill-rule="evenodd" clip-rule="evenodd" d="M16.0001 4.50813C10.5693 4.50813 6.16652 8.95531 6.16652 14.4409C6.16652 19.9265 10.5693 24.3737 16.0001 24.3737C21.4309 24.3737 25.8337 19.9265 25.8337 14.4409C25.8337 8.95531 21.4309 4.50813 16.0001 4.50813ZM16.0001 23.2275C11.2032 23.2275 7.30125 19.2861 7.30125 14.4409C7.30125 9.59569 11.2032 5.65436 16.0001 5.65436C20.797 5.65436 24.6989 9.59569 24.6989 14.4409C24.6989 19.2861 20.797 23.2275 16.0001 23.2275Z" fill="#FAF063"/>
<path d="M16.3398 8.94813L17.6907 11.727C17.7457 11.8402 17.8527 11.9187 17.9766 11.9366L21.0125 12.3758C21.3232 12.4208 21.4475 12.8053 21.2226 13.0257L19.0207 15.185C18.9312 15.2726 18.8905 15.399 18.9118 15.5228L19.4365 18.5758C19.4901 18.8877 19.1645 19.1255 18.8867 18.9774L16.1772 17.5314C16.0664 17.4723 15.9337 17.4723 15.823 17.5314L13.1135 18.9774C12.8357 19.1256 12.51 18.8878 12.5637 18.5758L13.0884 15.5228C13.1096 15.399 13.0689 15.2726 12.9795 15.185L10.7776 13.0257C10.5527 12.8052 10.677 12.4208 10.9877 12.3758L14.0235 11.9366C14.1474 11.9187 14.2544 11.8402 14.3095 11.727L15.6603 8.94813C15.7987 8.66352 16.2015 8.66352 16.3398 8.94813Z" fill="#FAA515"/>
<path d="M25.5208 17.0037C25.8281 17.0667 26.1276 16.8672 26.1905 16.5572C26.3307 15.865 26.4018 15.1529 26.4018 14.4402C26.4018 8.64692 21.7356 3.93364 16.0001 3.93364C10.2645 3.93364 5.59837 8.64692 5.59837 14.4402C5.59837 20.2335 10.2645 24.9468 16.0001 24.9468C19.9094 24.9468 23.4531 22.7656 25.248 19.2544C25.3917 18.9731 25.2826 18.6274 25.0042 18.4822C24.7258 18.3369 24.3835 18.4473 24.2397 18.7284C22.6404 21.857 19.4832 23.8006 16.0001 23.8006C10.8903 23.8006 6.73318 19.6015 6.73318 14.4401C6.73318 9.27877 10.8903 5.07972 16.0001 5.07972C21.11 5.07972 25.2671 9.27877 25.2671 14.4401C25.2671 15.0757 25.2038 15.7106 25.0788 16.3272C25.016 16.6374 25.2139 16.9402 25.5208 17.0037Z" fill="black"/>
<path d="M22.3127 12.3088C22.2458 12.1009 22.0677 11.9496 21.8536 11.9186L18.1558 11.3836L16.5094 7.99663C16.3214 7.57572 15.6788 7.5758 15.4908 7.99663L13.8444 11.3835L10.1467 11.9185C9.69174 11.9692 9.49407 12.5868 9.83191 12.8969L12.5121 15.5252L11.8731 19.2427C11.7802 19.694 12.2993 20.0766 12.6972 19.8475L16.0001 18.0849L19.303 19.8475C19.7002 20.0766 20.2201 19.694 20.127 19.2427L19.4881 15.5252L22.1683 12.8969C22.3236 12.7448 22.3795 12.5166 22.3127 12.3088ZM18.4826 14.9138C18.3481 15.0458 18.2868 15.2363 18.3188 15.423L18.8113 18.2889L16.2651 16.9301C16.0993 16.8416 15.9008 16.8416 15.735 16.9301L13.1888 18.2889L13.6813 15.423C13.7134 15.2363 13.652 15.0458 13.5174 14.9138L11.4513 12.8876L14.3019 12.4751C14.4876 12.4482 14.6481 12.3305 14.7308 12.1604L16 9.54943L17.2692 12.1604C17.3519 12.3304 17.5125 12.4482 17.6981 12.4751L20.5488 12.8876L18.4826 14.9138Z" fill="black"/>
<path d="M31.9219 34.0648L26.3765 24.363C28.8046 21.7737 30.2962 18.2797 30.2962 14.4401C30.2961 6.4778 23.883 0 16.0001 0C13.5747 0 11.1786 0.624765 9.07068 1.8068C8.79668 1.96046 8.69788 2.30929 8.85001 2.58606C9.00206 2.86268 9.34748 2.96247 9.6214 2.80897C11.5613 1.72117 13.7669 1.14623 16.0001 1.14623C23.2573 1.14623 29.1614 7.10995 29.1614 14.4402C29.1614 21.7706 23.2573 27.7343 16.0001 27.7343C8.74289 27.7343 2.83881 21.7706 2.83881 14.4401C2.83881 10.5077 4.549 6.79845 7.531 4.26373C7.77073 4.05995 7.80152 3.69839 7.59976 3.45628C7.39801 3.2141 7.04011 3.18287 6.80038 3.38681C3.56164 6.13978 1.70408 10.1686 1.70408 14.4401C1.70408 18.2862 3.20064 21.7857 5.63615 24.3764L4.06561 27.124C3.68925 27.7601 4.68509 28.3482 5.04828 27.6971L6.476 25.1993C8.18407 26.7436 10.2605 27.8798 12.554 28.4553L7.65809 37.0208L6.40572 33.0394C6.31699 32.7572 6.02983 32.5899 5.74342 32.6532L1.7037 33.5483L3.72428 30.0133C3.88095 29.7392 3.78798 29.3887 3.51662 29.2304C3.2452 29.0722 2.89827 29.166 2.7416 29.4401L0.0781632 34.0999C-0.174503 34.5092 0.226737 35.0654 0.691069 34.9463L5.48092 33.8848L6.96583 38.6055C7.09564 39.0699 7.77118 39.1455 7.9979 38.7185L13.7259 28.697C14.4667 28.8171 15.2261 28.8804 15.9999 28.8804C16.78 28.8804 17.5455 28.816 18.292 28.694L21.7323 34.7128C21.8374 34.8967 22.0281 34.9994 22.2242 34.9994C22.3204 34.9994 22.418 34.9747 22.5073 34.9226C22.7787 34.7643 22.8716 34.4138 22.715 34.1397L19.4634 28.451C21.756 27.8726 23.8309 26.7339 25.5371 25.1875L30.2961 33.5134L26.2564 32.6182C25.97 32.5548 25.6829 32.7222 25.5941 33.0045L24.3417 36.9858L24.0388 36.4559C23.8822 36.1818 23.5352 36.0879 23.2638 36.2461C22.9925 36.4044 22.8995 36.7549 23.0562 37.029L24.0018 38.6836C24.2286 39.1107 24.9041 39.0349 25.0339 38.5706L26.5188 33.8499L31.3087 34.9114C31.7735 35.0301 32.1744 34.4742 31.9219 34.0648Z" fill="black"/>
</svg>
