<svg width="14" height="16" viewBox="0 0 14 16" fill="none" xmlns="http://www.w3.org/2000/svg">
<path d="M6.93438 0C4.72131 0 2.91223 1.86847 2.91223 4.1542C2.91223 6.43993 4.72131 8.3084 6.93438 8.3084C9.14744 8.3084 10.9565 6.43993 10.9565 4.1542C10.9565 1.86847 9.14744 0 6.93438 0Z" fill="#192341"/>
<path d="M13.837 11.6281C13.7316 11.356 13.5911 11.1021 13.4331 10.8662C12.6251 9.63266 11.3781 8.81634 9.97299 8.61679C9.79737 8.59866 9.60416 8.63491 9.46364 8.74377C8.72595 9.30613 7.84777 9.59637 6.93442 9.59637C6.02107 9.59637 5.14289 9.30613 4.4052 8.74377C4.26468 8.63491 4.07147 8.5805 3.89585 8.61679C2.49073 8.81634 1.22614 9.63266 0.435772 10.8662C0.277698 11.1021 0.137173 11.3742 0.0318123 11.6281C-0.0208678 11.737 -0.003319 11.864 0.0493611 11.9728C0.189886 12.2268 0.365509 12.4808 0.523583 12.6985C0.769468 13.0431 1.03294 13.3515 1.33154 13.6418C1.57742 13.8957 1.85844 14.1315 2.13949 14.3674C3.52702 15.4377 5.19561 16 6.91687 16C8.63814 16 10.3067 15.4377 11.6943 14.3674C11.9753 14.1497 12.2563 13.8957 12.5022 13.6418C12.7832 13.3515 13.0642 13.0431 13.3102 12.6985C13.4858 12.4626 13.6439 12.2268 13.7844 11.9728C13.8722 11.864 13.8897 11.737 13.837 11.6281Z" fill="#192341"/>
</svg>
