<svg width="116" height="25" viewBox="0 0 116 25" fill="none" xmlns="http://www.w3.org/2000/svg">
<path fill-rule="evenodd" clip-rule="evenodd" d="M27.649 9.44488C27.4661 10.1404 27.1115 10.6509 26.5853 10.9768C26.0585 11.3027 25.3196 11.466 24.3665 11.466H21.3385L22.4015 7.42412H25.4294C26.3818 7.42412 27.0356 7.58709 27.3909 7.91296C27.7454 8.23921 27.8319 8.74975 27.649 9.44488ZM30.7847 9.35779C31.1698 7.89526 31.0102 6.77238 30.3061 5.99015C29.6019 5.20791 28.3681 4.81702 26.6058 4.81702H19.8465L15.7783 20.2871H19.0622L20.7024 14.0511H22.856C23.3389 14.0511 23.7191 14.1309 23.9971 14.2903C24.2757 14.4499 24.4388 14.7325 24.4892 15.1375L25.0749 20.2871H28.5935L28.0227 15.4855C27.9064 14.4135 27.4249 13.7833 26.5789 13.5951C27.6575 13.2768 28.5609 12.7475 29.2885 12.0087C30.0154 11.2702 30.5145 10.3868 30.7847 9.35779Z" fill="#072654"/>
<path fill-rule="evenodd" clip-rule="evenodd" d="M38.7657 14.7466C38.4913 15.7893 38.0686 16.5863 37.4978 17.1365C36.9263 17.6872 36.2427 17.9622 35.4471 17.9622C34.6358 17.9622 34.0855 17.6908 33.7955 17.1474C33.504 16.6044 33.4941 15.8189 33.765 14.7899C34.0352 13.7617 34.4663 12.9578 35.0598 12.3779C35.6526 11.7991 36.3469 11.509 37.1432 11.509C37.9389 11.509 38.4778 11.7883 38.7572 12.3458C39.0366 12.9032 39.0401 13.7035 38.7657 14.7466ZM40.2052 9.27107L39.7939 10.8355C39.6159 10.2704 39.272 9.82169 38.7629 9.48859C38.253 9.15548 37.6212 8.98853 36.8681 8.98853C35.9441 8.98853 35.0556 9.23136 34.2032 9.71658C33.3509 10.2021 32.6056 10.8865 31.9681 11.7698C31.3306 12.6536 30.8633 13.6602 30.5661 14.7899C30.269 15.9201 30.2094 16.9158 30.3882 17.7775C30.5669 18.6396 30.954 19.3022 31.5504 19.7657C32.1461 20.2296 32.9134 20.4608 33.8515 20.4608C34.6046 20.4608 35.3223 20.3016 36.003 19.9829C36.6837 19.6646 37.2616 19.2224 37.7375 18.6576L37.3085 20.2871H40.4853L43.3821 9.27107H40.2052Z" fill="#072654"/>
<path fill-rule="evenodd" clip-rule="evenodd" d="M54.8057 9.271H45.5729L44.9276 11.7264H50.3006L43.1966 17.9837L42.5903 20.287H52.1217L52.7676 17.832H47.0111L54.2228 11.4872L54.8057 9.271Z" fill="#072654"/>
<path fill-rule="evenodd" clip-rule="evenodd" d="M62.9342 14.7249C62.6484 15.8109 62.2251 16.6228 61.6649 17.1586C61.1047 17.6944 60.4268 17.9621 59.6312 17.9621C57.9675 17.9621 57.4201 16.8836 57.9874 14.7249C58.2696 13.6529 58.6951 12.8454 59.2638 12.3024C59.8332 11.759 60.5225 11.4873 61.3331 11.4873C62.1287 11.4873 62.6655 11.759 62.9421 12.3024C63.2185 12.8454 63.2165 13.6529 62.9342 14.7249ZM64.7929 9.68366C64.0617 9.22045 63.1278 8.98853 61.9904 8.98853C60.8388 8.98853 59.7723 9.22045 58.7902 9.68366C57.808 10.1476 56.9719 10.8138 56.282 11.6827C55.5913 12.552 55.0935 13.5658 54.7886 14.7249C54.4836 15.8839 54.4482 16.8974 54.6822 17.7667C54.9155 18.6359 55.4005 19.3022 56.1394 19.7657C56.8776 20.2296 57.8222 20.4609 58.9738 20.4609C60.1112 20.4609 61.1671 20.2296 62.1422 19.7657C63.1158 19.3022 63.949 18.6359 64.6397 17.7667C65.3296 16.8974 65.8274 15.8839 66.1324 14.7249C66.4373 13.5658 66.4728 12.552 66.2394 11.6827C66.0054 10.8138 65.5232 10.1476 64.7929 9.68366Z" fill="#072654"/>
<path fill-rule="evenodd" clip-rule="evenodd" d="M98.0208 14.7466C97.7464 15.7893 97.3237 16.5863 96.7529 17.1365C96.182 17.6872 95.497 17.9622 94.7014 17.9622C93.8916 17.9622 93.3406 17.6908 93.0505 17.1474C92.7591 16.6044 92.7492 15.8189 93.0201 14.7899C93.2903 13.7617 93.7214 12.9578 94.3149 12.3779C94.9077 11.7991 95.602 11.509 96.3983 11.509C97.1939 11.509 97.7329 11.7883 98.0122 12.3458C98.2917 12.9032 98.2952 13.7035 98.0208 14.7466ZM99.4603 9.27107L99.049 10.8355C98.871 10.2704 98.5271 9.82169 98.0179 9.48859C97.5081 9.15548 96.8763 8.98853 96.1231 8.98853C95.1992 8.98853 94.3106 9.23136 93.4583 9.71658C92.6059 10.2021 91.8606 10.8865 91.2232 11.7698C90.5857 12.6536 90.1183 13.6602 89.8212 14.7899C89.5241 15.9201 89.4652 16.9158 89.6432 17.7775C89.8219 18.6396 90.2084 19.3022 90.8054 19.7657C91.4012 20.2296 92.1684 20.4608 93.1066 20.4608C93.8596 20.4608 94.5773 20.3016 95.258 19.9829C95.9388 19.6646 96.5167 19.2224 96.9925 18.6576L96.5636 20.2871H99.7404L102.637 9.27107H99.4603Z" fill="#072654"/>
<path fill-rule="evenodd" clip-rule="evenodd" d="M76.1196 12.2262L76.9294 9.22771C76.6543 9.08282 76.2897 9.01025 75.8352 9.01025C75.1098 9.01025 74.4113 9.19485 73.7384 9.56443C73.1604 9.88151 72.6683 10.3266 72.2528 10.8843L72.674 9.26954L71.7542 9.2711H69.4981L66.5791 20.2871H69.7999L71.3139 14.5295C71.5344 13.6894 71.9301 13.034 72.5024 12.5632C73.0732 12.0925 73.7858 11.8569 74.6389 11.8569C75.165 11.8569 75.6579 11.9801 76.1196 12.2262Z" fill="#072654"/>
<path fill-rule="evenodd" clip-rule="evenodd" d="M85.0845 14.7898C84.8136 15.8188 84.3939 16.6042 83.8251 17.1473C83.255 17.6906 82.5728 17.962 81.7772 17.962C80.9808 17.962 80.4384 17.687 80.1498 17.1364C79.8604 16.5862 79.8533 15.7895 80.1277 14.7464C80.4022 13.7034 80.8291 12.903 81.4092 12.3456C81.9892 11.7881 82.6778 11.5088 83.4741 11.5088C84.2555 11.5088 84.7867 11.7989 85.0682 12.3781C85.349 12.9576 85.3547 13.7618 85.0845 14.7898ZM87.3353 9.71639C86.7375 9.23116 85.9766 8.98877 85.0533 8.98877C84.2428 8.98877 83.4713 9.17699 82.7409 9.55348C82.0084 9.93067 81.4149 10.4441 80.9596 11.0962L80.9698 11.0239L81.5109 9.26938H80.8883V9.27094H78.367L77.5664 12.3172C77.5572 12.3526 77.5494 12.3857 77.5401 12.4214L74.2378 24.9802H77.458L79.1208 18.6578C79.2839 19.2222 79.6229 19.6644 80.1363 19.9827C80.6497 20.3014 81.2829 20.4607 82.0367 20.4607C82.9749 20.4607 83.867 20.2295 84.7143 19.7656C85.5611 19.3024 86.2971 18.6394 86.9212 17.7774C87.5459 16.916 88.0069 15.9199 88.304 14.7898C88.6011 13.66 88.6627 12.6534 88.4904 11.7697C88.3182 10.8863 87.9323 10.202 87.3353 9.71639Z" fill="#072654"/>
<path fill-rule="evenodd" clip-rule="evenodd" d="M115.971 9.27405L115.974 9.271H114.023C113.961 9.271 113.906 9.2728 113.849 9.27405H112.836L112.319 10.009C112.277 10.0643 112.236 10.1201 112.191 10.1847L112.135 10.2698L108.021 16.1082L107.168 9.271H103.798L105.504 19.6605L101.736 24.9803H101.843H103.767H105.093L106.006 23.662C106.033 23.6227 106.056 23.5905 106.085 23.549L107.151 22.0093L107.182 21.9652L111.95 15.0765L115.968 9.2786L115.974 9.27405H115.971Z" fill="#072654"/>
<path fill-rule="evenodd" clip-rule="evenodd" d="M7.50255 6.58925L6.53857 10.2042L12.0544 6.56893L8.44725 20.2836L12.1104 20.2871L17.4392 0.0301514L7.50255 6.58925Z" fill="#3395FF"/>
<path fill-rule="evenodd" clip-rule="evenodd" d="M1.5668 14.5215L0.050293 20.287H7.55885C7.55885 20.287 10.63 8.56111 10.6309 8.55774C10.628 8.55961 1.5668 14.5215 1.5668 14.5215Z" fill="#072654"/>
</svg>
