<svg width="35" height="32" viewBox="0 0 35 32" fill="none" xmlns="http://www.w3.org/2000/svg">
<path d="M0.583328 5.23638H28.5833V27.3455H0.583328V5.23638Z" fill="#90622A"/>
<path d="M33.25 0.581821L28.5833 5.23637V27.3455L33.25 22.1091V0.581821Z" fill="#7A5324"/>
<path d="M17.5 0.581821H5.25L0.583328 5.23637H12.8333L17.5 0.581821Z" fill="#7A5324"/>
<path d="M28.5833 5.23637L33.25 0.581821H21L16.3333 5.23637H28.5833Z" fill="#7A5324"/>
<path d="M12.8333 9.89091H16.3333V5.23637L21 0.581821H17.5L12.8333 5.23637V9.89091Z" fill="#FCA947"/>
<path d="M28.5833 27.3455H0.583328L4.79966 26.5909C16.1513 24.5586 25.3674 16.2839 28.5833 5.23638V27.3455Z" fill="#7A5324"/>
<path d="M24.7917 12.2182H23.3333V8.72728L15.1667 14.5455L23.3333 20.3636V16.8727H23.625C25.5424 16.8727 27.2819 17.6169 28.5833 18.8236C30.0154 20.1513 30.9167 22.041 30.9167 24.1455C30.9167 28.1623 27.6523 31.4182 23.625 31.4182H24.7917C30.1076 31.4182 34.4167 27.1203 34.4167 21.8182C34.4167 16.5161 30.1076 12.2182 24.7917 12.2182Z" fill="#5070A1"/>
<path d="M28.5833 18.8236C29.8136 19.9645 30.6478 21.5209 30.8595 23.2704C30.8939 22.9847 30.9167 22.695 30.9167 22.4C30.9167 20.2956 30.0154 18.4064 28.5833 17.0781C27.2819 15.8714 25.5424 15.1273 23.625 15.1273H23.3333V16.8727H23.625C25.5424 16.8727 27.2819 17.6169 28.5833 18.8236Z" fill="#47648F"/>
<path d="M15.1667 14.5455L23.3333 20.3636V18.6182L16.3917 13.6727L15.1667 14.5455Z" fill="#47648F"/>
<path d="M29.4992 28.4416C28.1715 30.2435 26.0388 31.4182 23.625 31.4182H24.7917C30.1076 31.4182 34.4167 27.1203 34.4167 21.8182C34.4167 21.5238 34.3986 21.2335 34.3723 20.9455C34.0807 24.1705 32.1918 26.9318 29.4992 28.4416Z" fill="#47648F"/>
<path d="M29.1667 12.633V5.47724L32.6667 1.98633V13.9636H33.8333V0.581818H33.8281C33.8281 0.506764 33.8187 0.431127 33.789 0.358982C33.6992 0.141382 33.4857 0 33.25 0H5.25C5.09483 0 4.94667 0.061091 4.83758 0.170473L0.1715 4.82444C0.0659166 4.92975 0 5.0752 0 5.23636V27.3455C0 27.6672 0.26075 27.9273 0.583333 27.9273H28.5833C28.9059 27.9273 29.1667 27.6672 29.1667 27.3455V20.3869C29.9005 21.4592 30.3333 22.752 30.3333 24.1455C30.3333 27.8348 27.3239 30.8364 23.625 30.8364C23.3024 30.8364 23.0417 31.0964 23.0417 31.4182C23.0417 31.7399 23.3024 32 23.625 32H24.7917C30.4202 32 35 27.4321 35 21.8182C35 17.767 32.6095 14.2708 29.1667 12.633ZM28.3418 4.65455H17.7415L21.2415 1.16364H31.8418L28.3418 4.65455ZM15.9209 4.82502C15.8112 4.93382 15.75 5.0816 15.75 5.23636V9.30909H13.4167V5.47724L17.7415 1.16364H19.5918L15.9209 4.82502ZM5.4915 1.16364H16.0918L12.5918 4.65455H1.9915L5.4915 1.16364ZM1.16667 26.7636V5.81818H12.25V9.89091C12.25 10.2127 12.5107 10.4727 12.8333 10.4727H16.3333C16.6559 10.4727 16.9167 10.2127 16.9167 9.89091V5.81818H28V12.1594C26.9897 11.8243 25.9134 11.6364 24.7917 11.6364H23.9167V8.72727C23.9167 8.50909 23.7948 8.30953 23.6005 8.20945C23.4051 8.10938 23.1717 8.12626 22.9944 8.25367L14.8278 14.0719C14.6743 14.1812 14.5833 14.3575 14.5833 14.5455C14.5833 14.7334 14.6743 14.9097 14.8278 15.0185L22.9944 20.8367C23.1717 20.9635 23.4051 20.9792 23.6005 20.8809C23.7948 20.7814 23.9167 20.5818 23.9167 20.3636V17.4609C25.473 17.5279 26.8934 18.126 28 19.0778V26.7636H1.16667ZM29.1947 29.6931C30.6186 28.2711 31.5 26.3092 31.5 24.1455C31.5 19.8144 27.9673 16.2909 23.625 16.2909H23.3333C23.0107 16.2909 22.75 16.551 22.75 16.8727V19.2332L16.1706 14.5455L22.75 9.85775V12.2182C22.75 12.5399 23.0107 12.8 23.3333 12.8H24.7917C29.7774 12.8 33.8333 16.8454 33.8333 21.8182C33.8333 25.198 31.9602 28.1489 29.1947 29.6931Z" fill="black"/>
<path d="M2.33333 24.4364H9.33332V25.6H2.33333V24.4364Z" fill="black"/>
<path d="M2.33333 22.1091H9.33332V23.2727H2.33333V22.1091Z" fill="black"/>
</svg>
