<svg width="19" height="19" viewBox="0 0 19 19" fill="none" xmlns="http://www.w3.org/2000/svg">
<path d="M9.5 0C4.26149 0 0 4.26149 0 9.5C0 14.7385 4.26149 19 9.5 19C14.7385 19 19 14.7385 19 9.5C19 4.26149 14.7385 0 9.5 0Z" fill="#088D45"/>
<path d="M14.3149 7.48679L9.16897 12.6325C9.01459 12.7869 8.81194 12.8646 8.60928 12.8646C8.40663 12.8646 8.20398 12.7869 8.0496 12.6325L5.47673 10.0597C5.1671 9.75017 5.1671 9.24977 5.47673 8.94028C5.78622 8.63065 6.28647 8.63065 6.5961 8.94028L8.60928 10.9535L13.1955 6.36742C13.505 6.05779 14.0052 6.05779 14.3149 6.36742C14.6243 6.6769 14.6243 7.17715 14.3149 7.48679Z" fill="#FAFAFA"/>
</svg>
