<svg width="15" height="15" viewBox="0 0 15 15" fill="none" xmlns="http://www.w3.org/2000/svg">
<path d="M7.5 0C3.36433 0 0 3.36433 0 7.5C0 11.6357 3.36433 15 7.5 15C11.6357 15 15 11.6357 15 7.5C15 3.36433 11.6357 0 7.5 0Z" fill="#192341"/>
<path d="M11.3012 5.91061L7.23864 9.97304C7.11676 10.0949 6.95677 10.1563 6.79678 10.1563C6.6368 10.1563 6.47681 10.0949 6.35493 9.97304L4.32372 7.94183C4.07927 7.69749 4.07927 7.30244 4.32372 7.05811C4.56805 6.81367 4.96298 6.81367 5.20743 7.05811L6.79678 8.64747L10.4175 5.0269C10.6618 4.78246 11.0567 4.78246 11.3012 5.0269C11.5455 5.27123 11.5455 5.66617 11.3012 5.91061Z" fill="#FAFAFA"/>
</svg>
