<svg width="15" height="15" viewBox="0 0 15 15" fill="none" xmlns="http://www.w3.org/2000/svg">
<path d="M14.8112 12.8885L11.2095 9.17831C10.9512 8.91213 10.6284 8.80556 10.4886 8.94165C10.3482 9.07677 10.0252 8.97047 9.76694 8.70429L9.71542 8.65102C11.3274 6.53699 11.171 3.51017 9.23521 1.57997C7.12249 -0.526656 3.69698 -0.526656 1.58454 1.57997C-0.528178 3.68659 -0.528178 7.10174 1.58454 9.20836C3.55329 11.1717 6.6606 11.3032 8.78508 9.6075L8.8077 9.63102C9.06549 9.8972 9.16152 10.2224 9.02074 10.3578C8.88063 10.4931 8.97596 10.8186 9.2345 11.0843L12.8343 14.7959C13.0926 15.0614 13.5181 15.0693 13.7853 14.8115L14.7956 13.8368C15.0618 13.5797 15.069 13.1556 14.8112 12.8885ZM8.04637 8.02286C6.59249 9.47277 4.22659 9.47277 2.77293 8.02335C1.31905 6.57366 1.31927 4.21432 2.77293 2.76489C4.22659 1.3152 6.59249 1.31542 8.04588 2.76511C9.49999 4.21458 9.49999 6.57344 8.04637 8.02286Z" fill="#192341"/>
</svg>
