<svg width="40" height="31" viewBox="0 0 40 31" fill="none" xmlns="http://www.w3.org/2000/svg">
<path d="M33.8027 22.8714H1.78578C1.12313 22.8714 0.586016 22.351 0.586016 21.7091V1.72997C0.586016 1.08799 1.1232 0.567642 1.78578 0.567642H33.8027C34.4653 0.567642 35.0024 1.08807 35.0024 1.72997V21.7091C35.0024 22.351 34.4653 22.8714 33.8027 22.8714Z" fill="#9DC6FB"/>
<path d="M33.8026 0.567566H31.5669C32.2296 0.567566 32.7667 1.08799 32.7667 1.72989V21.709C32.7667 22.351 32.2295 22.8713 31.5669 22.8713H33.8026C34.4653 22.8713 35.0024 22.3509 35.0024 21.709V1.72997C35.0024 1.08799 34.4653 0.567566 33.8026 0.567566Z" fill="#80B4FB"/>
<path d="M0.585938 5.3554H35.0024V8.42473H0.585938V5.3554Z" fill="#407093"/>
<path d="M32.7668 5.3554H35.0025V8.42466H32.7668V5.3554Z" fill="#365E7D"/>
<path d="M8.95571 19.6962C11.6644 19.6962 13.8602 18.6772 13.8602 17.4203C13.8602 16.1633 11.6644 15.1444 8.95571 15.1444C6.24701 15.1444 4.05118 16.1633 4.05118 17.4203C4.05118 18.6772 6.24701 19.6962 8.95571 19.6962Z" fill="#ECBE6B"/>
<path d="M8.9557 15.1443C8.50703 15.1443 8.07296 15.1728 7.66015 15.2251C9.73992 15.4889 11.2691 16.3714 11.2691 17.4202C11.2691 18.469 9.73999 19.3515 7.66015 19.6153C8.07304 19.6677 8.5071 19.6961 8.9557 19.6961C11.6644 19.6961 13.8602 18.6771 13.8602 17.4202C13.8602 16.1633 11.6644 15.1443 8.9557 15.1443Z" fill="#E7A561"/>
<path d="M31.8419 13.2332L24.2698 17.2897V19.9147C24.2698 24.3516 26.9212 28.3872 31.0702 30.2657C31.5593 30.4871 32.1246 30.4871 32.6137 30.2657C36.7627 28.3872 39.4141 24.3516 39.4141 19.9147V17.2897L31.8419 13.2332Z" fill="#FFE07D"/>
<path d="M31.8419 13.2332L30.6387 13.8778L36.7144 17.1325C37.103 17.3407 37.3441 17.737 37.3441 18.1672V20.0949C37.3441 24.3689 34.8832 28.2697 30.9939 30.2295C31.0195 30.2413 31.0444 30.254 31.0702 30.2657C31.5592 30.4871 32.1245 30.4871 32.6136 30.2657C36.7626 28.3872 39.414 24.3516 39.414 19.9147V17.2897L31.8419 13.2332Z" fill="#FFD064"/>
<path d="M14.4462 17.4203C14.4462 15.7992 12.0858 14.5767 8.95571 14.5767C5.82563 14.5767 3.46524 15.7992 3.46524 17.4203C3.46524 19.0414 5.82563 20.2639 8.95571 20.2639C12.0858 20.2639 14.4462 19.0414 14.4462 17.4203ZM4.63704 17.4203C4.63704 16.707 6.27993 15.712 8.95563 15.712C11.6313 15.712 13.2742 16.707 13.2742 17.4203C13.2742 18.1336 11.6313 19.1286 8.95563 19.1286C6.27993 19.1286 4.63704 18.1336 4.63704 17.4203Z" fill="black"/>
<path d="M27.908 13.1647C28.2317 13.1647 28.494 12.9106 28.494 12.5971C28.494 12.2835 28.2317 12.0294 27.908 12.0294H16.5227C16.1991 12.0294 15.9368 12.2835 15.9368 12.5971C15.9368 12.9106 16.1991 13.1647 16.5227 13.1647H27.908Z" fill="black"/>
<path d="M32.1255 15.7636C31.9491 15.6691 31.7348 15.6691 31.5584 15.7636L26.7207 18.3552C26.5341 18.4551 26.4183 18.6454 26.4183 18.8519V19.9146C26.4183 21.6121 26.9011 23.2826 27.8145 24.7457C28.7252 26.2044 30.0234 27.3927 31.5687 28.182C31.7394 28.2692 31.9437 28.2694 32.1152 28.182C33.6605 27.3927 34.9587 26.2044 35.8694 24.7457C36.7828 23.2826 37.2656 21.6121 37.2656 19.9147V18.852C37.2656 18.6454 37.1498 18.4552 36.9632 18.3553L32.1255 15.7636ZM36.0937 19.9147C36.0937 21.405 35.6694 22.8723 34.8667 24.1582C34.1205 25.3534 33.0789 26.3418 31.8419 27.0319C30.605 26.3418 29.5635 25.3534 28.8173 24.1582C28.0145 22.8723 27.5901 21.4049 27.5901 19.9147V19.1867L31.8419 16.909L36.0937 19.1867V19.9147Z" fill="black"/>
<path d="M39.6976 16.7929L35.5884 14.5916V1.72998C35.5884 0.77602 34.7873 5.53545e-09 33.8027 5.53545e-09H1.7857C0.801094 -7.56815e-05 0 0.77602 0 1.72998V21.7091C0 22.6631 0.801094 23.4391 1.7857 23.4391H5.31734C5.64102 23.4391 5.90328 23.185 5.90328 22.8714C5.90328 22.5578 5.64102 22.3038 5.31734 22.3038H1.7857C1.44719 22.3038 1.17188 22.037 1.17188 21.7091V8.99238H34.4165V13.9638L32.1255 12.7365C31.9491 12.642 31.7348 12.642 31.5584 12.7365L26.542 15.4239H22.2418C21.9181 15.4239 21.6559 15.678 21.6559 15.9915C21.6559 16.3051 21.9181 16.5592 22.2418 16.5592H24.4227L23.9863 16.793C23.7997 16.8929 23.6839 17.0832 23.6839 17.2897V19.9147C23.6839 20.722 23.7691 21.5217 23.933 22.3038H7.66008C7.33641 22.3038 7.07414 22.5578 7.07414 22.8714C7.07414 23.185 7.33641 23.4391 7.66008 23.4391H24.2316C24.5559 24.4607 25.0201 25.4414 25.6199 26.3544C26.8864 28.2821 28.6853 29.8125 30.8223 30.78C31.4703 31.0733 32.2136 31.0733 32.8618 30.78C34.8088 29.8984 36.4938 28.5317 37.7345 26.8278C37.921 26.5716 37.8578 26.2175 37.5934 26.0367C37.3288 25.8561 36.9634 25.9173 36.7768 26.1734C35.6535 27.7162 34.1282 28.9534 32.3656 29.7514C32.0328 29.9021 31.651 29.9021 31.3184 29.7514C27.3925 27.974 24.8558 24.1128 24.8558 19.9147V17.6245L31.842 13.8819C34.2476 15.1706 37.4541 16.8884 38.8281 17.6245V19.9147C38.8281 21.4317 38.507 22.9059 37.8736 24.2962C37.7429 24.5829 37.877 24.9181 38.173 25.0447C38.4692 25.1713 38.815 25.0414 38.9457 24.7546C39.6453 23.2189 40 21.5906 40 19.9147V17.2897C40 17.0831 39.8842 16.8929 39.6976 16.7929ZM1.17188 7.85707V5.92304H26.7366C27.0603 5.92304 27.3226 5.66896 27.3226 5.35539C27.3226 5.04182 27.0603 4.78774 26.7366 4.78774H1.17188V1.72998C1.17188 1.40203 1.44719 1.13531 1.7857 1.13531H33.8026C34.1411 1.13531 34.4164 1.40203 34.4164 1.72998V4.78774H29.0793C28.7556 4.78774 28.4934 5.04182 28.4934 5.35539C28.4934 5.66896 28.7556 5.92304 29.0793 5.92304H34.4164V7.85707H1.17188Z" fill="black"/>
</svg>
