<svg width="17" height="16" viewBox="0 0 17 16" fill="none" xmlns="http://www.w3.org/2000/svg">
<path d="M16.9313 6.9263C16.8201 6.06175 15.9269 5.46993 15.0719 5.79263C14.7517 5.91471 14.3664 5.73337 14.2219 5.40782C14.0491 5.01947 13.8373 4.64752 13.5908 4.302C13.3712 3.99429 13.413 3.59165 13.6857 3.36463C14.0116 3.09477 14.1936 2.69571 14.1851 2.27092C14.1766 1.839 13.9747 1.44137 13.6312 1.17864C13.0659 0.747458 12.4497 0.388353 11.7987 0.112072C11.6231 0.0378146 11.4389 0 11.2512 0C10.5726 0 10.0002 0.486169 9.88975 1.15582C9.83168 1.50777 9.50088 1.74693 9.1283 1.70624C8.71463 1.66197 8.28398 1.66197 7.871 1.70624C7.49982 1.74693 7.16762 1.50777 7.10955 1.15582C6.99905 0.486169 6.42673 0 5.74813 0C5.56043 0 5.37625 0.0378481 5.2013 0.112072C4.54962 0.388353 3.93338 0.746722 3.36812 1.17864C3.0253 1.44137 2.82343 1.83899 2.81493 2.27022C2.80643 2.69571 2.98848 3.09407 3.3143 3.36533C3.58773 3.59165 3.62811 3.99429 3.40923 4.30126C3.16273 4.64678 2.95023 5.01874 2.77741 5.40709C2.63291 5.73263 2.27591 5.92394 1.91961 5.78902C1.76378 5.73049 1.60155 5.7005 1.43723 5.7005C0.745908 5.7005 0.15798 6.22736 0.0680332 6.92627C0.023375 7.28038 0 7.64233 0 8C0 8.35767 0.023375 8.71961 0.0686973 9.0737C0.179197 9.93751 1.0717 10.5294 1.92807 10.2074C2.24752 10.0853 2.63357 10.2666 2.77807 10.5922C2.95089 10.9805 3.1627 11.3525 3.4092 11.698C3.62877 12.0057 3.587 12.4083 3.31427 12.6354C2.98845 12.9052 2.80639 13.3043 2.81489 13.7291C2.82339 14.161 3.02527 14.5586 3.36882 14.8214C3.93407 15.2525 4.55032 15.6116 5.20127 15.8879C5.37695 15.9622 5.56109 16 5.74882 16C6.42739 16 6.99975 15.5138 7.11025 14.8442C7.16832 14.4922 7.49982 14.2566 7.8717 14.2938C8.28464 14.338 8.71532 14.338 9.129 14.2938C9.50157 14.2559 9.83238 14.4922 9.89045 14.8442C10.0009 15.5138 10.5733 15.9993 11.2519 16C11.4396 16 11.6237 15.9622 11.7987 15.8879C12.4496 15.6116 13.0666 15.2533 13.6311 14.8214C13.974 14.5586 14.1766 14.161 14.1851 13.7298C14.1936 13.3043 14.0115 12.9059 13.6857 12.6347C13.4123 12.4083 13.3719 12.0057 13.5908 11.6987C13.8373 11.3532 14.0498 10.9813 14.2226 10.5929C14.3671 10.2667 14.7248 10.0761 15.0804 10.211C15.2362 10.2702 15.3984 10.3002 15.5628 10.3002C16.2541 10.3002 16.842 9.77337 16.932 9.07447C16.9766 8.71603 17 8.35552 17 8C17 7.64448 16.9766 7.28396 16.9313 6.9263ZM8.5 10.8556C6.93743 10.8556 5.66668 9.57486 5.66668 8C5.66668 6.42514 6.93743 5.14439 8.5 5.14439C10.0626 5.14439 11.3333 6.42514 11.3333 8C11.3333 9.57486 10.0626 10.8556 8.5 10.8556Z" fill="#192341"/>
</svg>
