<svg width="16" height="16" viewBox="0 0 16 16" fill="none" xmlns="http://www.w3.org/2000/svg">
<path d="M15.86 4.65279L11.5266 0.152826C11.3853 0.00622091 11.1686 -0.0397993 10.98 0.0361279C10.7906 0.112787 10.6666 0.296136 10.6666 0.500114V2.66685H10.5C6.91602 2.66685 4 5.58284 4 9.1668V10.1668C4 10.3987 4.16333 10.5921 4.38928 10.6448C4.42603 10.6541 4.46265 10.6581 4.49927 10.6581C4.68799 10.6581 4.86865 10.5474 4.95593 10.3735C5.89331 8.4981 7.77795 7.33344 9.87463 7.33344H10.6666V9.50005C10.6666 9.70415 10.7906 9.88749 10.98 9.96342C11.1674 10.0401 11.3853 9.99345 11.5266 9.84672L15.86 5.34676C16.0466 5.15279 16.0466 4.84749 15.86 4.65279Z" fill="black"/>
<path d="M14 16H2C0.897339 16 0 15.1028 0 14V4.66684C0 3.56419 0.897339 2.66685 2 2.66685H4C4.36865 2.66685 4.66663 2.96483 4.66663 3.33348C4.66663 3.70213 4.36865 4.0001 4 4.0001H2C1.63196 4.0001 1.33325 4.2988 1.33325 4.66684V14C1.33325 14.3681 1.63196 14.6668 2 14.6668H14C14.3679 14.6668 14.6666 14.3681 14.6666 14V8.66681C14.6666 8.29816 14.9646 8.00007 15.3333 8.00007C15.702 8.00007 16 8.29816 16 8.66681V14C16 15.1028 15.1027 16 14 16Z" fill="black"/>
</svg>
