<svg width="46" height="29" viewBox="0 0 46 29" fill="none" xmlns="http://www.w3.org/2000/svg">
<path d="M32.2193 0.717857H4.56156C4.13732 0.717857 3.7933 1.06071 3.7933 1.48352V17.5628H6.09807C6.94665 17.5628 7.63458 18.2483 7.63458 19.0941C7.63458 19.9398 6.94656 20.6254 6.09807 20.6254H3.7933V22.9224C3.7933 23.3452 4.13732 23.6881 4.56156 23.6881H32.9875V1.48352C32.9875 1.06071 32.6435 0.717857 32.2193 0.717857Z" fill="#B4E66E"/>
<path d="M42.2068 12.9688H32.9875V23.6882H45.2798V16.0314C45.2798 14.34 43.9039 12.9688 42.2068 12.9688Z" fill="#FFDC64"/>
<path d="M32.9875 15.2658H41.3105C42.1592 15.2658 42.847 15.9513 42.847 16.7971V23.6882H32.9875V15.2658Z" fill="#FFC850"/>
<path d="M39.1337 3.78059H32.9875V6.84335H41.4385V6.07768C41.4385 4.80897 40.4066 3.78059 39.1337 3.78059Z" fill="#FFDC64"/>
<path d="M42.2068 12.9688L40.6702 6.84335H32.9875V12.9688H42.2068Z" fill="#B4E6FF"/>
<path d="M42.2068 16.0314H45.2799V19.0942H43.7434C42.8947 19.0942 42.2069 18.4086 42.2069 17.5628V16.0314H42.2068Z" fill="#F1F4FB"/>
<path d="M38.3654 18.3285C36.05 18.3285 34.0355 19.6058 32.9875 21.4908V23.6883H44.4585C44.0796 20.6674 41.4991 18.3285 38.3654 18.3285Z" fill="#E1A546"/>
<path d="M42.8469 20.2676V23.6882H44.4584C44.2935 22.373 43.7107 21.1875 42.8469 20.2676Z" fill="#FFC850"/>
<path d="M38.3654 28.2823C40.4869 28.2823 42.2068 26.5683 42.2068 24.4539C42.2068 22.3395 40.4869 20.6255 38.3654 20.6255C36.2439 20.6255 34.524 22.3395 34.524 24.4539C34.524 26.5683 36.2439 28.2823 38.3654 28.2823Z" fill="#5B5D6E"/>
<path d="M36.0606 9.14034H41.2464L40.6703 6.84335H32.9876V12.9688H35.2924V9.90601C35.2923 9.48319 35.6363 9.14034 36.0606 9.14034Z" fill="#9BD6FF"/>
<path d="M13.0125 18.3285C11.0725 18.3285 9.34521 19.2264 8.21893 20.6255H6.09816H3.7933V22.9225C3.7933 23.3453 4.13732 23.6882 4.56156 23.6882H32.9875V20.6254H17.8062C16.6799 19.2264 14.9525 18.3285 13.0125 18.3285Z" fill="#A0D755"/>
<path d="M13.0125 28.2823C15.1341 28.2823 16.8539 26.5683 16.8539 24.4539C16.8539 22.3395 15.1341 20.6255 13.0125 20.6255C10.891 20.6255 9.17116 22.3395 9.17116 24.4539C9.17116 26.5683 10.891 28.2823 13.0125 28.2823Z" fill="#5B5D6E"/>
<path d="M42.7799 12.2941L41.5887 7.54526C41.9143 7.47632 42.1587 7.18835 42.1587 6.84335V6.07768C42.1587 4.41527 40.8016 3.06284 39.1337 3.06284H33.7078V1.48352C33.7078 0.665469 33.0401 0 32.2193 0H4.56156C3.74074 0 3.07302 0.665469 3.07302 1.48352V14.5001C3.07302 14.8965 3.39547 15.2179 3.7933 15.2179C4.19113 15.2179 4.51358 14.8966 4.51358 14.5001V1.48352C4.51358 1.4571 4.53505 1.4357 4.56156 1.4357H32.2192C32.2457 1.4357 32.2672 1.4571 32.2672 1.48352V14.5003C32.2672 14.8967 32.5896 15.2181 32.9875 15.2181C33.3852 15.2181 33.7077 14.8968 33.7077 14.5003V13.6865H42.2042C42.2048 13.6865 42.2054 13.6867 42.2061 13.6867C42.2067 13.6867 42.2074 13.6866 42.208 13.6866C43.2536 13.6872 44.1413 14.3712 44.4462 15.3137H42.2066C41.8089 15.3137 41.4863 15.635 41.4863 16.0315V17.5628C41.4863 18.8031 42.4987 19.812 43.7431 19.812H44.5594V22.9704H42.6761C42.0575 21.1901 40.3593 19.9076 38.3652 19.9076C36.3712 19.9076 34.6729 21.1901 34.0544 22.9704H33.7076V17.5628C33.7076 17.1664 33.3851 16.845 32.9873 16.845C32.5895 16.845 32.267 17.1663 32.267 17.5628V22.9703H17.3234C16.7048 21.19 15.0066 19.9076 13.0125 19.9076C11.0185 19.9076 9.32023 21.19 8.70165 22.9703H4.56156C4.53505 22.9703 4.51358 22.9489 4.51358 22.9225V21.3433H7.63467C8.03241 21.3433 8.35495 21.0219 8.35495 20.6254C8.35495 20.229 8.0325 19.9076 7.63467 19.9076H0.720279C0.32254 19.9076 0 20.2289 0 20.6254C0 21.0218 0.32245 21.3433 0.720279 21.3433H3.07311V22.9225C3.07311 23.7405 3.74083 24.406 4.56165 24.406H8.45225C8.45207 24.4219 8.45099 24.4378 8.45099 24.4538C8.45099 26.9606 10.4974 29 13.0125 29C15.5277 29 17.5741 26.9606 17.5741 24.4538C17.5741 24.4377 17.573 24.4219 17.5728 24.406H33.8049C33.8048 24.4219 33.8037 24.4378 33.8037 24.4538C33.8037 26.9606 35.8501 29 38.3652 29C40.8804 29 42.9268 26.9606 42.9268 24.4538C42.9268 24.4377 42.9257 24.4219 42.9255 24.406H45.2797C45.6775 24.406 46 24.0846 46 23.6882V16.0313C46.0001 14.141 44.6006 12.5703 42.7799 12.2941ZM33.7078 7.56111H40.1079L41.2843 12.2509H33.7078V7.56111ZM39.1337 4.49845C40.0074 4.49845 40.7183 5.2069 40.7183 6.07768V6.1255H33.7078V4.49845H39.1337ZM13.0125 27.5645C11.2916 27.5645 9.89146 26.1692 9.89146 24.4539C9.89146 22.7387 11.2916 21.3433 13.0125 21.3433C14.7335 21.3433 16.1336 22.7387 16.1336 24.4539C16.1336 26.1692 14.7335 27.5645 13.0125 27.5645ZM38.3654 27.5645C36.6445 27.5645 35.2443 26.1692 35.2443 24.4539C35.2443 22.7387 36.6445 21.3433 38.3654 21.3433C40.0864 21.3433 41.4865 22.7387 41.4865 24.4539C41.4865 26.1692 40.0864 27.5645 38.3654 27.5645ZM43.7433 18.3763C43.2932 18.3763 42.927 18.0114 42.927 17.5627V16.7492H44.5595V18.3762H43.7433V18.3763Z" fill="black"/>
<path d="M13.0126 22.9704C12.1918 22.9704 11.524 23.6359 11.524 24.4539C11.524 25.272 12.1918 25.9374 13.0126 25.9374C13.8334 25.9374 14.5011 25.272 14.5011 24.4539C14.5011 23.6359 13.8334 22.9704 13.0126 22.9704Z" fill="black"/>
<path d="M38.3654 22.9704C37.5446 22.9704 36.8769 23.6359 36.8769 24.4539C36.8769 25.272 37.5446 25.9374 38.3654 25.9374C39.1862 25.9374 39.854 25.272 39.854 24.4539C39.854 23.6359 39.1862 22.9704 38.3654 22.9704Z" fill="black"/>
<path d="M18.4385 20.6255C18.4385 21.0219 18.7609 21.3433 19.1588 21.3433H29.9144C30.3122 21.3433 30.6347 21.022 30.6347 20.6255C30.6347 20.2291 30.3123 19.9076 29.9144 19.9076H19.1587C18.7609 19.9076 18.4385 20.2291 18.4385 20.6255Z" fill="black"/>
<path d="M2.25679 18.2806H11.476C11.8738 18.2806 12.1963 17.9592 12.1963 17.5627C12.1963 17.1663 11.8739 16.8449 11.476 16.8449H2.25679C1.85905 16.8449 1.53651 17.1663 1.53651 17.5627C1.53651 17.9592 1.85905 18.2806 2.25679 18.2806Z" fill="black"/>
<path d="M24.0273 7.1014L17.6221 13.4849L14.2901 10.1641C14.0088 9.88371 13.5527 9.88371 13.2715 10.1641C12.9902 10.4444 12.9902 10.8988 13.2715 11.1792L17.1129 15.0076C17.2535 15.1478 17.4379 15.2178 17.6221 15.2178C17.8064 15.2178 17.9908 15.1478 18.1314 15.0076L25.0457 8.11653C25.327 7.83618 25.327 7.38176 25.0457 7.1014C24.7646 6.82114 24.3085 6.82114 24.0273 7.1014Z" fill="black"/>
</svg>
