<svg width="14" height="18" viewBox="0 0 14 18" fill="none" xmlns="http://www.w3.org/2000/svg">
<rect x="0.200012" y="1.88929" width="11.4" height="13.5085" fill="#192341"/>
<path d="M4.69934 13.4136H1.90255C1.78211 13.4136 1.68451 13.3214 1.68451 13.2076C1.68451 13.0938 1.78211 13.0016 1.90255 13.0016H4.69934C4.81979 13.0016 4.91738 13.0938 4.91738 13.2076C4.91738 13.3214 4.81979 13.4136 4.69934 13.4136Z" fill="#E2E2E2"/>
<path d="M9.95181 13.4136H7.15493C7.03449 13.4136 6.93689 13.3214 6.93689 13.2076C6.93689 13.0938 7.03449 13.0016 7.15493 13.0016H9.95181C10.0723 13.0016 10.1699 13.0938 10.1699 13.2076C10.1699 13.3214 10.0723 13.4136 9.95181 13.4136Z" fill="#E2E2E2"/>
<path d="M11.8941 15.4974V1.7956C11.8941 1.68182 11.7965 1.58962 11.676 1.58962H9.41247C9.29202 1.58962 9.19442 1.68182 9.19442 1.7956C9.19442 1.90938 9.29202 2.00157 9.41247 2.00157H11.458V15.2914H0.436085V2.00157H2.44679C2.56723 2.00157 2.66483 1.90938 2.66483 1.7956C2.66483 1.68182 2.56723 1.58962 2.44679 1.58962H0.218043C0.0975959 1.58962 0 1.68182 0 1.7956V15.4974C0 15.6111 0.0975959 15.7033 0.218043 15.7033H11.676C11.7965 15.7033 11.8941 15.6111 11.8941 15.4974Z" fill="#192341"/>
<path d="M12.6487 2.49747C12.6407 2.38394 12.5382 2.29809 12.4169 2.3055C12.2967 2.31292 12.2057 2.41096 12.2136 2.52449L13.1519 15.9911L2.15384 16.675L2.12009 16.1914C2.11224 16.0778 2.00671 15.9939 1.88827 15.9994C1.76808 16.0069 1.67712 16.1049 1.68505 16.2184L1.73302 16.9075C1.73677 16.962 1.76337 17.0129 1.80689 17.0489C1.84675 17.082 1.89786 17.1 1.95054 17.1C1.95534 17.1 1.96005 17.0998 1.96484 17.0995L13.3981 16.3886C13.5183 16.3812 13.6093 16.2831 13.6013 16.1696L12.6487 2.49747Z" fill="#192341"/>
<path d="M9.95181 6.66159H1.90255C1.78211 6.66159 1.68451 6.75379 1.68451 6.86757C1.68451 6.98135 1.78211 7.07354 1.90255 7.07354H9.95181C10.0723 7.07354 10.1699 6.98135 10.1699 6.86757C10.1699 6.75379 10.0723 6.66159 9.95181 6.66159Z" fill="white"/>
<path d="M9.95181 8.15012H1.90255C1.78211 8.15012 1.68451 8.24232 1.68451 8.3561C1.68451 8.46988 1.78211 8.56207 1.90255 8.56207H9.95181C10.0723 8.56207 10.1699 8.46988 10.1699 8.3561C10.1699 8.24232 10.0723 8.15012 9.95181 8.15012Z" fill="white"/>
<path d="M9.95181 9.63865H1.90255C1.78211 9.63865 1.68451 9.73085 1.68451 9.84463C1.68451 9.95841 1.78211 10.0506 1.90255 10.0506H9.95181C10.0723 10.0506 10.1699 9.95841 10.1699 9.84463C10.1699 9.73085 10.0723 9.63865 9.95181 9.63865Z" fill="white"/>
<path d="M3.94431 5.06925L3.67865 5.95774C3.6558 6.03436 3.68161 6.11659 3.74511 6.16891C3.78558 6.20227 3.83677 6.21974 3.88858 6.21974C3.91797 6.21974 3.94763 6.21414 3.97554 6.20268L5.21707 5.69253C5.45631 5.74806 5.70147 5.77615 5.94708 5.77615C7.6329 5.77615 9.00439 4.48058 9.00439 2.88808C9.00439 1.29557 7.6329 0 5.94708 0C4.26126 0 2.88977 1.29557 2.88977 2.88808C2.88977 3.73199 3.2723 4.5193 3.94431 5.06925ZM5.94708 0.411947C7.39235 0.411947 8.5683 1.52272 8.5683 2.88808C8.5683 4.25343 7.39244 5.36421 5.94708 5.36421C5.7143 5.36421 5.48186 5.3348 5.25632 5.27663C5.20835 5.26435 5.15741 5.26773 5.11206 5.28643L4.22332 5.65158L4.40264 5.05212C4.42654 4.97179 4.39706 4.88586 4.32772 4.83428C3.69103 4.36079 3.32594 3.65142 3.32594 2.88808C3.32586 1.52272 4.5018 0.411947 5.94708 0.411947Z" fill="#767171"/>
<path d="M4.34421 3.4129C4.00301 3.4129 3.7254 3.15065 3.7254 2.82835C3.7254 2.50604 4.00301 2.24379 4.34421 2.24379C4.6854 2.24379 4.96301 2.50604 4.96301 2.82835C4.96301 3.15065 4.6854 3.4129 4.34421 3.4129ZM4.34421 2.65574C4.24347 2.65574 4.16149 2.7331 4.16149 2.82835C4.16149 2.92359 4.24339 3.00095 4.34421 3.00095C4.44503 3.00095 4.52693 2.92359 4.52693 2.82835C4.52693 2.7331 4.44494 2.65574 4.34421 2.65574Z" fill="#878787"/>
<path d="M5.94711 3.4129C5.60592 3.4129 5.32831 3.15066 5.32831 2.82835C5.32831 2.50604 5.60592 2.2438 5.94711 2.2438C6.28831 2.2438 6.56592 2.50604 6.56592 2.82835C6.56592 3.15066 6.28831 3.4129 5.94711 3.4129ZM5.94711 2.65574C5.84638 2.65574 5.76439 2.73311 5.76439 2.82835C5.76439 2.92359 5.84629 3.00096 5.94711 3.00096C6.04794 3.00096 6.12983 2.92359 6.12983 2.82835C6.12983 2.73311 6.04785 2.65574 5.94711 2.65574Z" fill="#878787"/>
<path d="M7.54996 3.4129C7.20876 3.4129 6.93115 3.15066 6.93115 2.82835C6.93115 2.50604 7.20876 2.2438 7.54996 2.2438C7.89115 2.2438 8.16876 2.50604 8.16876 2.82835C8.16876 3.15066 7.89115 3.4129 7.54996 3.4129ZM7.54996 2.65574C7.44922 2.65574 7.36724 2.73311 7.36724 2.82835C7.36724 2.92359 7.44913 3.00096 7.54996 3.00096C7.65078 3.00096 7.73268 2.92359 7.73268 2.82835C7.73268 2.73311 7.65069 2.65574 7.54996 2.65574Z" fill="#878787"/>
</svg>
