<svg width="11" height="15" viewBox="0 0 11 15" fill="none" xmlns="http://www.w3.org/2000/svg">
<path d="M10.7708 15C10.7241 15 10.6784 14.9866 10.64 14.9616L5.5 11.6181L0.360021 14.961C0.325701 14.9833 0.285505 14.9964 0.243784 14.9989C0.202064 15.0014 0.160409 14.9932 0.123329 14.9751C0.086249 14.9571 0.0551566 14.9299 0.0334181 14.8965C0.0116796 14.8631 0.000123202 14.8248 0 14.7857V1.07143C0.000363884 0.787373 0.121202 0.515048 0.336009 0.31419C0.550815 0.113332 0.842051 0.000340255 1.14583 0H9.85417C10.1579 0.000340255 10.4492 0.113332 10.664 0.31419C10.8788 0.515048 10.9996 0.787373 11 1.07143V14.7857C11 14.8425 10.9759 14.8971 10.9329 14.9372C10.8899 14.9774 10.8316 15 10.7708 15ZM5.5 11.1429C5.54678 11.1429 5.59245 11.1562 5.63085 11.1812L10.5417 14.3756V1.07143C10.5417 0.900932 10.4692 0.737419 10.3403 0.61686C10.2114 0.496301 10.0365 0.428571 9.85417 0.428571H1.14583C0.963497 0.428571 0.788629 0.496301 0.659697 0.61686C0.530766 0.737419 0.458333 0.900932 0.458333 1.07143V14.3756L5.36915 11.1812C5.40755 11.1562 5.45322 11.1429 5.5 11.1429Z" fill="#192341"/>
<path d="M5.43195 11.3973L0.331205 14.6183C0.253921 10.3856 0.112602 1.76535 0.165596 1.14593C0.218591 0.526509 0.739707 0.309713 0.99364 0.278742C3.5661 0.258095 8.90974 0.229188 9.70466 0.278742C10.4996 0.328296 10.7425 0.732983 10.7646 0.929133V14.6183L5.43195 11.3973Z" fill="#192341"/>
<path d="M7.60831 8.50072C7.5599 8.50073 7.51273 8.4864 7.47356 8.45979L5.49998 7.11772L3.52639 8.45958C3.48726 8.48615 3.44013 8.50046 3.39177 8.50046C3.3434 8.50047 3.29628 8.48617 3.25714 8.4596C3.21799 8.43304 3.18884 8.39557 3.17386 8.35257C3.15887 8.30958 3.15882 8.26325 3.17371 8.22022L3.92698 6.04972L1.95316 4.70765C1.91401 4.68104 1.88487 4.64353 1.86991 4.60049C1.85496 4.55745 1.85497 4.51109 1.86993 4.46805C1.88489 4.42501 1.91404 4.3875 1.9532 4.36091C1.99236 4.33431 2.03952 4.31999 2.08791 4.32H4.52694L5.28204 2.1495C5.29711 2.10663 5.32627 2.0693 5.36536 2.04284C5.40446 2.01638 5.45149 2.00213 5.49975 2.00213C5.54801 2.00213 5.59504 2.01638 5.63413 2.04284C5.67323 2.0693 5.70239 2.10663 5.71746 2.1495L6.47302 4.32H8.91227C8.96067 4.31999 9.00783 4.33431 9.04699 4.36091C9.08615 4.3875 9.1153 4.42501 9.13026 4.46805C9.14522 4.51109 9.14522 4.55745 9.13027 4.60049C9.11532 4.64353 9.08618 4.68104 9.04702 4.70765L7.07321 6.04972L7.82648 8.22022C7.83766 8.2524 7.84053 8.28659 7.83486 8.32001C7.8292 8.35342 7.81514 8.38511 7.79386 8.41247C7.77258 8.43983 7.74467 8.46209 7.71242 8.47743C7.68017 8.49277 7.6445 8.50075 7.60831 8.50072ZM5.49998 6.63858C5.54839 6.63857 5.59556 6.65289 5.63473 6.6795L7.17267 7.72522L6.58577 6.03386C6.57086 5.99086 6.57088 5.94455 6.58582 5.90156C6.60077 5.85857 6.62986 5.8211 6.66896 5.7945L8.20735 4.74858H6.30665C6.25825 4.74857 6.2111 4.73424 6.17195 4.70765C6.1328 4.68105 6.10366 4.64354 6.08871 4.6005L5.49998 2.9085L4.91148 4.60136C4.89652 4.6444 4.86738 4.6819 4.82823 4.7085C4.78908 4.7351 4.74193 4.74943 4.69354 4.74943H2.7926L4.33123 5.79472C4.37032 5.82131 4.39942 5.85878 4.41436 5.90177C4.4293 5.94477 4.42932 5.99107 4.41442 6.03408L3.82706 7.72522L5.365 6.6795C5.40423 6.65285 5.45149 6.63852 5.49998 6.63858Z" fill="white"/>
<path d="M5.49821 2.41573L6.24184 4.55578L8.64828 4.55578L6.70143 5.8784L7.44506 8.01844L5.49821 6.69582L3.55136 8.01844L4.29499 5.8784L2.34814 4.55578L4.75458 4.55578L5.49821 2.41573Z" fill="white"/>
</svg>
